<?xml version="1.0" encoding="UTF-8" standalone="no"?><!DOCTYPE svg PUBLIC "-//W3C//DTD SVG 1.1//EN" "http://www.w3.org/Graphics/SVG/1.1/DTD/svg11.dtd"><svg width="100%" height="100%" viewBox="0 0 503 357" version="1.1" xmlns="http://www.w3.org/2000/svg" xmlns:xlink="http://www.w3.org/1999/xlink" xml:space="preserve" xmlns:serif="http://www.serif.com/" style="fill-rule:evenodd;clip-rule:evenodd;stroke-linejoin:round;stroke-miterlimit:2;"><g><path d="M171.232,170.832c-0.12,-0.601 -0.216,-1.179 -0.385,-1.78c-0.12,-0.601 -0.24,-1.178 -0.433,-1.779c-0.12,-0.553 -0.288,-1.13 -0.48,-1.659l-0.554,-1.684c0,0 -0.024,0 -0.024,-0.024c-0.432,-1.274 -0.961,-2.5 -1.563,-3.703c-0.144,-0.336 -0.312,-0.649 -0.481,-0.962c-0.24,-0.48 -0.504,-0.913 -0.745,-1.37c-0.072,-0.096 -0.12,-0.193 -0.168,-0.289c-0.024,-0.024 -0.024,-0.072 -0.072,-0.096c-0.866,-1.563 -1.876,-3.078 -3.006,-4.497c-0.553,-0.721 -1.154,-1.442 -1.756,-2.116c-0.601,-0.697 -1.226,-1.346 -1.875,-1.995c-2.212,-2.213 -4.689,-4.184 -7.358,-5.844c-6.348,-3.967 -13.899,-6.3 -21.978,-6.3c-22.94,0 -41.504,18.564 -41.504,41.456c0,22.892 18.564,41.503 41.504,41.503c8.079,0 15.606,-2.308 21.978,-6.3c2.669,-1.659 5.122,-3.631 7.358,-5.843c1.875,-1.876 3.559,-3.944 5.074,-6.132c1.13,-1.659 2.14,-3.414 3.005,-5.218c0.866,-1.803 1.587,-3.703 2.213,-5.675c1.226,-3.871 1.875,-8.007 1.875,-12.287c0,-0.337 0,-0.649 -0.024,-0.962c0,-0.313 -0.024,-0.625 -0.024,-0.938c-0.024,-0.601 -0.072,-1.226 -0.12,-1.851l-0,-0.048c-0.096,-1.227 -0.265,-2.405 -0.457,-3.607Z" style="fill:#fff;fill-rule:nonzero;"/><path d="M493.882,47.836l-55.066,0c-6.709,0 -12.84,3.775 -15.846,9.835l-8.681,17.506l-27.604,56.075l-14.116,28.639l-14.09,-28.639l-27.605,-56.075l-8.681,-17.506c-3.006,-6.036 -9.137,-9.835 -15.87,-9.835l-175.993,0c-71.104,0 -128.935,56.941 -130.306,127.733c-1.419,73.1 59.779,132.95 132.879,132.95l118.715,0c5.001,0 9.041,-4.063 9.041,-9.041l0,-65.309c0,-5.002 -4.064,-9.041 -9.041,-9.041l-119.918,-0c-25.248,-0 -47.034,-19.357 -48.284,-44.582c-1.347,-26.955 20.199,-49.342 46.914,-49.342l1.226,-0l120.062,0.024l7.262,-0c3.943,-0 7.598,2.212 9.426,5.747l43.403,88.129l14.331,29.143l4.786,9.739l11.734,23.806l7.887,16.014c0.217,0.385 0.433,0.698 0.697,1.034c0.289,0.337 0.529,0.698 0.818,0.962c0.072,0.072 0.12,0.096 0.192,0.12c0.241,0.289 0.505,0.505 0.794,0.698c0.144,0.12 0.313,0.24 0.505,0.312c0.625,0.433 1.322,0.794 2.044,1.034c0.336,0.12 0.697,0.217 1.034,0.313c0.192,0.024 0.385,0.072 0.601,0.072c0.409,0.096 0.817,0.168 1.226,0.168l28.447,0c0.409,0 0.817,-0.072 1.226,-0.168c0.192,-0 0.409,-0.024 0.601,-0.072c0.337,-0.096 0.698,-0.193 1.01,-0.313c0.722,-0.24 1.419,-0.601 2.044,-1.034c0.192,-0.072 0.385,-0.192 0.529,-0.312c0.241,-0.193 0.505,-0.409 0.794,-0.698c0.072,-0.024 0.096,-0.072 0.168,-0.12c0.313,-0.288 0.553,-0.625 0.842,-0.962c0.216,-0.336 0.432,-0.649 0.697,-1.034l7.887,-16.062l11.734,-23.806l4.762,-9.667l14.355,-29.167l46.217,-93.876l22.338,-45.399c0.65,-1.323 0.938,-2.693 0.938,-4.04l0,-24.863c0,-5.002 -4.064,-9.066 -9.065,-9.066l-0,-0.024Z" style="fill:#fff;fill-rule:nonzero;"/></g></svg>