<?xml version="1.0" encoding="UTF-8"?>
<svg id="Ebene_1" xmlns="http://www.w3.org/2000/svg" viewBox="0 0 799.62 219.14"><defs><style>.cls-1{fill:#9a7fa7;}.cls-1,.cls-2,.cls-3{stroke-width:0px;}.cls-2{fill:#cacfd7;}.cls-3{fill:#9af3a7;}</style></defs><path class="cls-3" d="M172.25,104.04c-.05-.68-.33-.91-.96-.89-.72.02-1.45-.04-2.16.01-.97.09-1.25-.35-1.22-1.26.05-1.43-.02-2.87.02-4.31.02-.78-.18-1.16-1.06-1.16-5,.03-9.99.03-14.98,0-.89,0-1.07.38-1.07,1.16,0,2.38.36,2.2-2.27,2.21h-1.42c.04,1.59.28,1.59,2.25,1.59,2.24,0,4.47.03,6.71-.02.95-.02,1.35.25,1.34,1.27-.01,2.34.03,2.34,2.36,2.34h12.53c-.03-.26-.05-.58-.07-.94ZM146.59,70.68s-.01-.08-.01-.12c.02-.17.01-.32-.02-.44-.16.09-.37.13-.66.12-1.55-.04-3.11.03-4.67-.02-.92-.03-1.36.27-1.25,1.23.04.27-.02.56.01.83.12.97-.23,1.35-1.26,1.33-2.29-.05-2.08-.25-2.1,2.13,0,.12-.01.24,0,.36.1.85-.3,1.12-1.12,1.09-1.15-.05-2.31-.01-3.47-.01-2.29,0-2.32,0-2.34,2.26-.01.83-.29,1.13-1.12,1.11-1.52-.05-3.04-.06-4.55,0-.93.04-1.18-.35-1.14-1.2.05-1.08.01-2.16.01-3.24,0-2.46,0-2.5-2.45-2.51-.9,0-1.18-.31-1.16-1.19.02-.94.02-1.88.02-2.82-.85-.08-1.79-.31-2.3.3-.63.75-.15,2-.22,3.03-.01.08,0,.16,0,.24,0,3.08,0,3.12-3.14,3.13-1,0-1.21.4-1.19,1.28.04,2.44.06,4.88-.01,7.31-.03,1.07.34,1.36,1.37,1.35,4.44-.05,8.87-.02,13.31-.02,2.13,0,2.18,0,2.18-2.16-.01-.98.38-1.23,1.28-1.21,1.67.05,3.35.01,5.03.01,2.24,0,2.27.01,2.32-2.26.02-.84.33-1.14,1.14-1.1.76.04,1.52-.01,2.28.01.67.03.93-.27.92-.93-.03-1.15-.02-2.31,0-3.47.03-2.59-.28-2.29,2.31-2.31,2.08-.01,2.08,0,2.01-2.11ZM172.25,104.04c-.05-.68-.33-.91-.96-.89-.72.02-1.45-.04-2.16.01-.97.09-1.25-.35-1.22-1.26.05-1.43-.02-2.87.02-4.31.02-.78-.18-1.16-1.06-1.16-5,.03-9.99.03-14.98,0-.89,0-1.07.38-1.07,1.16,0,2.38.36,2.2-2.27,2.21h-1.42c.04,1.59.28,1.59,2.25,1.59,2.24,0,4.47.03,6.71-.02.95-.02,1.35.25,1.34,1.27-.01,2.34.03,2.34,2.36,2.34h12.53c-.03-.26-.05-.58-.07-.94ZM146.59,70.68s-.01-.08-.01-.12c.02-.17.01-.32-.02-.44-.16.09-.37.13-.66.12-1.55-.04-3.11.03-4.67-.02-.92-.03-1.36.27-1.25,1.23.04.27-.02.56.01.83.12.97-.23,1.35-1.26,1.33-2.29-.05-2.08-.25-2.1,2.13,0,.12-.01.24,0,.36.1.85-.3,1.12-1.12,1.09-1.15-.05-2.31-.01-3.47-.01-2.29,0-2.32,0-2.34,2.26-.01.83-.29,1.13-1.12,1.11-1.52-.05-3.04-.06-4.55,0-.93.04-1.18-.35-1.14-1.2.05-1.08.01-2.16.01-3.24,0-2.46,0-2.5-2.45-2.51-.9,0-1.18-.31-1.16-1.19.02-.94.02-1.88.02-2.82-.85-.08-1.79-.31-2.3.3-.63.75-.15,2-.22,3.03-.01.08,0,.16,0,.24,0,3.08,0,3.12-3.14,3.13-1,0-1.21.4-1.19,1.28.04,2.44.06,4.88-.01,7.31-.03,1.07.34,1.36,1.37,1.35,4.44-.05,8.87-.02,13.31-.02,2.13,0,2.18,0,2.18-2.16-.01-.98.38-1.23,1.28-1.21,1.67.05,3.35.01,5.03.01,2.24,0,2.27.01,2.32-2.26.02-.84.33-1.14,1.14-1.1.76.04,1.52-.01,2.28.01.67.03.93-.27.92-.93-.03-1.15-.02-2.31,0-3.47.03-2.59-.28-2.29,2.31-2.31,2.08-.01,2.08,0,2.01-2.11ZM146.59,70.68s-.01-.08-.01-.12c.02-.17.01-.32-.02-.44-.09-.4-.43-.54-.97-.52-.8.03-1.6-.02-2.4,0-.67.02-.93-.29-.92-.94.02-1.36,0-2.71,0-4.07h0c0-1.28-.05-2.56.02-3.84.04-.94-.3-1.24-1.24-1.23-3.12.05-6.23.02-9.35.02-2.15,0-2.19,0-2.19,2.15.01.97-.36,1.23-1.27,1.21-2.08-.04-4.15.03-6.23-.02-.91-.03-1.19.31-1.16,1.19.05,1.47,0,2.95.02,4.43.01.72-.18,1.09-1,1.12-.18.01-.36-.01-.56-.03-.85-.08-1.79-.31-2.3.3-.63.75-.15,2-.22,3.03-.01.08,0,.16,0,.24,0,3.08,0,3.12-3.14,3.13-1,0-1.21.4-1.19,1.28.04,2.44.06,4.88-.01,7.31-.03,1.07.34,1.36,1.37,1.35,4.44-.05,8.87-.02,13.31-.02,2.13,0,2.18,0,2.18-2.16-.01-.98.38-1.23,1.28-1.21,1.67.05,3.35.01,5.03.01,2.24,0,2.27.01,2.32-2.26.02-.84.33-1.14,1.14-1.1.76.04,1.52-.01,2.28.01.67.03.93-.27.92-.93-.03-1.15-.02-2.31,0-3.47.03-2.59-.28-2.29,2.31-2.31,2.08-.01,2.08,0,2.01-2.11ZM172.25,104.04c-.05-.68-.33-.91-.96-.89-.72.02-1.45-.04-2.16.01-.97.09-1.25-.35-1.22-1.26.05-1.43-.02-2.87.02-4.31.02-.78-.18-1.16-1.06-1.16-5,.03-9.99.03-14.98,0-.89,0-1.07.38-1.07,1.16,0,2.38.36,2.2-2.27,2.21h-1.42c.04,1.59.28,1.59,2.25,1.59,2.24,0,4.47.03,6.71-.02.95-.02,1.35.25,1.34,1.27-.01,2.34.03,2.34,2.36,2.34h12.53c-.03-.26-.05-.58-.07-.94ZM146.59,70.68s-.01-.08-.01-.12c.02-.17.01-.32-.02-.44-.09-.4-.43-.54-.97-.52-.8.03-1.6-.02-2.4,0-.67.02-.93-.29-.92-.94.02-1.36,0-2.71,0-4.07h0c0-1.28-.05-2.56.02-3.84.04-.94-.3-1.24-1.24-1.23-3.12.05-6.23.02-9.35.02-2.15,0-2.19,0-2.19,2.15.01.97-.36,1.23-1.27,1.21-2.08-.04-4.15.03-6.23-.02-.91-.03-1.19.31-1.16,1.19.05,1.47,0,2.95.02,4.43.01.72-.18,1.09-1,1.12-.18.01-.36-.01-.56-.03-.85-.08-1.79-.31-2.3.3-.63.75-.15,2-.22,3.03-.01.08,0,.16,0,.24,0,3.08,0,3.12-3.14,3.13-1,0-1.21.4-1.19,1.28.04,2.44.06,4.88-.01,7.31-.03,1.07.34,1.36,1.37,1.35,4.44-.05,8.87-.02,13.31-.02,2.13,0,2.18,0,2.18-2.16-.01-.98.38-1.23,1.28-1.21,1.67.05,3.35.01,5.03.01,2.24,0,2.27.01,2.32-2.26.02-.84.33-1.14,1.14-1.1.76.04,1.52-.01,2.28.01.67.03.93-.27.92-.93-.03-1.15-.02-2.31,0-3.47.03-2.59-.28-2.29,2.31-2.31,2.08-.01,2.08,0,2.01-2.11ZM47.06,18.08c-.11-.11-.27-.17-.43-.17h-1.34c-.34,0-.61.27-.61.6v1.21c0,.34.27.61.61.61h1.34c.34,0,.61-.27.61-.61v-1.2c0-.17-.06-.32-.18-.44ZM146.59,70.68s-.01-.08-.01-.12c.02-.17.01-.32-.02-.44-.09-.4-.43-.54-.97-.52-.8.03-1.6-.02-2.4,0-.67.02-.93-.29-.92-.94.02-1.36,0-2.71,0-4.07h0c0-1.28-.05-2.56.02-3.84.04-.94-.3-1.24-1.24-1.23-3.12.05-6.23.02-9.35.02-2.15,0-2.19,0-2.19,2.15.01.97-.36,1.23-1.27,1.21-2.08-.04-4.15.03-6.23-.02-.91-.03-1.19.31-1.16,1.19.05,1.47,0,2.95.02,4.43.01.72-.18,1.09-1,1.12-.18.01-.36-.01-.56-.03-.85-.08-1.79-.31-2.3.3-.63.75-.15,2-.22,3.03-.01.08,0,.16,0,.24,0,3.08,0,3.12-3.14,3.13-1,0-1.21.4-1.19,1.28.04,2.44.06,4.88-.01,7.31-.03,1.07.34,1.36,1.37,1.35,4.44-.05,8.87-.02,13.31-.02,2.13,0,2.18,0,2.18-2.16-.01-.98.38-1.23,1.28-1.21,1.67.05,3.35.01,5.03.01,2.24,0,2.27.01,2.32-2.26.02-.84.33-1.14,1.14-1.1.76.04,1.52-.01,2.28.01.67.03.93-.27.92-.93-.03-1.15-.02-2.31,0-3.47.03-2.59-.28-2.29,2.31-2.31,2.08-.01,2.08,0,2.01-2.11ZM172.25,104.04c-.05-.68-.33-.91-.96-.89-.72.02-1.45-.04-2.16.01-.97.09-1.25-.35-1.22-1.26.05-1.43-.02-2.87.02-4.31.02-.78-.18-1.16-1.06-1.16-5,.03-9.99.03-14.98,0-.89,0-1.07.38-1.07,1.16,0,2.38.36,2.2-2.27,2.21h-1.42c.04,1.59.28,1.59,2.25,1.59,2.24,0,4.47.03,6.71-.02.95-.02,1.35.25,1.34,1.27-.01,2.34.03,2.34,2.36,2.34h12.53c-.03-.26-.05-.58-.07-.94ZM146.59,70.68s-.01-.08-.01-.12c.02-.17.01-.32-.02-.44-.09-.4-.43-.54-.97-.52-.8.03-1.6-.02-2.4,0-.67.02-.93-.29-.92-.94.02-1.36,0-2.71,0-4.07h0c0-1.28-.05-2.56.02-3.84.04-.94-.3-1.24-1.24-1.23-3.12.05-6.23.02-9.35.02-2.15,0-2.19,0-2.19,2.15.01.97-.36,1.23-1.27,1.21-2.08-.04-4.15.03-6.23-.02-.91-.03-1.19.31-1.16,1.19.05,1.47,0,2.95.02,4.43.01.72-.18,1.09-1,1.12-.18.01-.36-.01-.56-.03-.85-.08-1.79-.31-2.3.3-.63.75-.15,2-.22,3.03-.01.08,0,.16,0,.24,0,3.08,0,3.12-3.14,3.13-1,0-1.21.4-1.19,1.28.04,2.44.06,4.88-.01,7.31-.03,1.07.34,1.36,1.37,1.35,4.44-.05,8.87-.02,13.31-.02,2.13,0,2.18,0,2.18-2.16-.01-.98.38-1.23,1.28-1.21,1.67.05,3.35.01,5.03.01,2.24,0,2.27.01,2.32-2.26.02-.84.33-1.14,1.14-1.1.76.04,1.52-.01,2.28.01.67.03.93-.27.92-.93-.03-1.15-.02-2.31,0-3.47.03-2.59-.28-2.29,2.31-2.31,2.08-.01,2.08,0,2.01-2.11ZM47.06,18.08c-.11-.11-.27-.17-.43-.17h-1.34c-.34,0-.61.27-.61.6v1.21c0,.34.27.61.61.61h1.34c.34,0,.61-.27.61-.61v-1.2c0-.17-.06-.32-.18-.44ZM47.06,18.08c-.11-.11-.27-.17-.43-.17h-1.34c-.34,0-.61.27-.61.6v1.21c0,.34.27.61.61.61h1.34c.34,0,.61-.27.61-.61v-1.2c0-.17-.06-.32-.18-.44ZM146.59,70.68s-.01-.08-.01-.12c.02-.17.01-.32-.02-.44-.09-.4-.43-.54-.97-.52-.8.03-1.6-.02-2.4,0-.67.02-.93-.29-.92-.94.02-1.36,0-2.71,0-4.07h0c0-1.28-.05-2.56.02-3.84.04-.94-.3-1.24-1.24-1.23-3.12.05-6.23.02-9.35.02-2.15,0-2.19,0-2.19,2.15.01.97-.36,1.23-1.27,1.21-2.08-.04-4.15.03-6.23-.02-.91-.03-1.19.31-1.16,1.19.05,1.47,0,2.95.02,4.43.01.72-.18,1.09-1,1.12-.18.01-.36-.01-.56-.03-.85-.08-1.79-.31-2.3.3-.63.75-.15,2-.22,3.03-.01.08,0,.16,0,.24,0,3.08,0,3.12-3.14,3.13-1,0-1.21.4-1.19,1.28.04,2.44.06,4.88-.01,7.31-.03,1.07.34,1.36,1.37,1.35,4.44-.05,8.87-.02,13.31-.02,2.13,0,2.18,0,2.18-2.16-.01-.98.38-1.23,1.28-1.21,1.67.05,3.35.01,5.03.01,2.24,0,2.27.01,2.32-2.26.02-.84.33-1.14,1.14-1.1.76.04,1.52-.01,2.28.01.67.03.93-.27.92-.93-.03-1.15-.02-2.31,0-3.47.03-2.59-.28-2.29,2.31-2.31,2.08-.01,2.08,0,2.01-2.11ZM172.25,104.04c-.05-.68-.33-.91-.96-.89-.72.02-1.45-.04-2.16.01-.97.09-1.25-.35-1.22-1.26.05-1.43-.02-2.87.02-4.31.02-.78-.18-1.16-1.06-1.16-5,.03-9.99.03-14.98,0-.89,0-1.07.38-1.07,1.16,0,2.38.36,2.2-2.27,2.21h-1.42c.04,1.59.28,1.59,2.25,1.59,2.24,0,4.47.03,6.71-.02.95-.02,1.35.25,1.34,1.27-.01,2.34.03,2.34,2.36,2.34h12.53c-.03-.26-.05-.58-.07-.94ZM146.59,70.68s-.01-.08-.01-.12c.02-.17.01-.32-.02-.44-.09-.4-.43-.54-.97-.52-.8.03-1.6-.02-2.4,0-.67.02-.93-.29-.92-.94.02-1.36,0-2.71,0-4.07h0c0-1.28-.05-2.56.02-3.84.04-.94-.3-1.24-1.24-1.23-3.12.05-6.23.02-9.35.02-2.15,0-2.19,0-2.19,2.15.01.97-.36,1.23-1.27,1.21-2.08-.04-4.15.03-6.23-.02-.91-.03-1.19.31-1.16,1.19.05,1.47,0,2.95.02,4.43.01.72-.18,1.09-1,1.12-.18.01-.36-.01-.56-.03-.85-.08-1.79-.31-2.3.3-.63.75-.15,2-.22,3.03-.01.08,0,.16,0,.24,0,3.08,0,3.12-3.14,3.13-1,0-1.21.4-1.19,1.28.04,2.44.06,4.88-.01,7.31-.03,1.07.34,1.36,1.37,1.35,4.44-.05,8.87-.02,13.31-.02,2.13,0,2.18,0,2.18-2.16-.01-.98.38-1.23,1.28-1.21,1.67.05,3.35.01,5.03.01,2.24,0,2.27.01,2.32-2.26.02-.84.33-1.14,1.14-1.1.76.04,1.52-.01,2.28.01.67.03.93-.27.92-.93-.03-1.15-.02-2.31,0-3.47.03-2.59-.28-2.29,2.31-2.31,2.08-.01,2.08,0,2.01-2.11ZM47.06,18.08c-.11-.11-.27-.17-.43-.17h-1.34c-.34,0-.61.27-.61.6v1.21c0,.34.27.61.61.61h1.34c.34,0,.61-.27.61-.61v-1.2c0-.17-.06-.32-.18-.44ZM47.06,18.08c-.11-.11-.27-.17-.43-.17h-1.34c-.34,0-.61.27-.61.6v1.21c0,.34.27.61.61.61h1.34c.34,0,.61-.27.61-.61v-1.2c0-.17-.06-.32-.18-.44ZM146.59,70.68s-.01-.08-.01-.12c.02-.17.01-.32-.02-.44-.09-.4-.43-.54-.97-.52-.8.03-1.6-.02-2.4,0-.67.02-.93-.29-.92-.94.02-1.36,0-2.71,0-4.07h0c0-1.28-.05-2.56.02-3.84.04-.94-.3-1.24-1.24-1.23-3.12.05-6.23.02-9.35.02-2.15,0-2.19,0-2.19,2.15.01.97-.36,1.23-1.27,1.21-2.08-.04-4.15.03-6.23-.02-.91-.03-1.19.31-1.16,1.19.05,1.47,0,2.95.02,4.43.01.72-.18,1.09-1,1.12-.18.01-.36-.01-.56-.03-.85-.08-1.79-.31-2.3.3-.63.75-.15,2-.22,3.03-.01.08,0,.16,0,.24,0,3.08,0,3.12-3.14,3.13-1,0-1.21.4-1.19,1.28.04,2.44.06,4.88-.01,7.31-.03,1.07.34,1.36,1.37,1.35,4.44-.05,8.87-.02,13.31-.02,2.13,0,2.18,0,2.18-2.16-.01-.98.38-1.23,1.28-1.21,1.67.05,3.35.01,5.03.01,2.24,0,2.27.01,2.32-2.26.02-.84.33-1.14,1.14-1.1.76.04,1.52-.01,2.28.01.67.03.93-.27.92-.93-.03-1.15-.02-2.31,0-3.47.03-2.59-.28-2.29,2.31-2.31,2.08-.01,2.08,0,2.01-2.11ZM172.25,104.04c-.05-.68-.33-.91-.96-.89-.72.02-1.45-.04-2.16.01-.97.09-1.25-.35-1.22-1.26.05-1.43-.02-2.87.02-4.31.02-.78-.18-1.16-1.06-1.16-5,.03-9.99.03-14.98,0-.89,0-1.07.38-1.07,1.16,0,2.38.36,2.2-2.27,2.21h-1.42c.04,1.59.28,1.59,2.25,1.59,2.24,0,4.47.03,6.71-.02.95-.02,1.35.25,1.34,1.27-.01,2.34.03,2.34,2.36,2.34h12.53c-.03-.26-.05-.58-.07-.94ZM146.59,70.68s-.01-.08-.01-.12c.02-.17.01-.32-.02-.44-.09-.4-.43-.54-.97-.52-.8.03-1.6-.02-2.4,0-.67.02-.93-.29-.92-.94.02-1.36,0-2.71,0-4.07h0c0-1.28-.05-2.56.02-3.84.04-.94-.3-1.24-1.24-1.23-3.12.05-6.23.02-9.35.02-2.15,0-2.19,0-2.19,2.15.01.97-.36,1.23-1.27,1.21-2.08-.04-4.15.03-6.23-.02-.91-.03-1.19.31-1.16,1.19.05,1.47,0,2.95.02,4.43.01.72-.18,1.09-1,1.12-.18.01-.36-.01-.56-.03-.85-.08-1.79-.31-2.3.3-.63.75-.15,2-.22,3.03-.01.08,0,.16,0,.24,0,3.08,0,3.12-3.14,3.13-1,0-1.21.4-1.19,1.28.04,2.44.06,4.88-.01,7.31-.03,1.07.34,1.36,1.37,1.35,4.44-.05,8.87-.02,13.31-.02,2.13,0,2.18,0,2.18-2.16-.01-.98.38-1.23,1.28-1.21,1.67.05,3.35.01,5.03.01,2.24,0,2.27.01,2.32-2.26.02-.84.33-1.14,1.14-1.1.76.04,1.52-.01,2.28.01.67.03.93-.27.92-.93-.03-1.15-.02-2.31,0-3.47.03-2.59-.28-2.29,2.31-2.31,2.08-.01,2.08,0,2.01-2.11ZM47.06,18.08c-.11-.11-.27-.17-.43-.17h-1.34c-.34,0-.61.27-.61.6v1.21c0,.34.27.61.61.61h1.34c.34,0,.61-.27.61-.61v-1.2c0-.17-.06-.32-.18-.44ZM47.06,18.08c-.11-.11-.27-.17-.43-.17h-1.34c-.34,0-.61.27-.61.6v1.21c0,.34.27.61.61.61h1.34c.34,0,.61-.27.61-.61v-1.2c0-.17-.06-.32-.18-.44ZM146.59,70.68s-.01-.08-.01-.12c.02-.17.01-.32-.02-.44-.09-.4-.43-.54-.97-.52-.8.03-1.6-.02-2.4,0-.67.02-.93-.29-.92-.94.02-1.36,0-2.71,0-4.07h0c0-1.28-.05-2.56.02-3.84.04-.94-.3-1.24-1.24-1.23-3.12.05-6.23.02-9.35.02-2.15,0-2.19,0-2.19,2.15.01.97-.36,1.23-1.27,1.21-2.08-.04-4.15.03-6.23-.02-.91-.03-1.19.31-1.16,1.19.05,1.47,0,2.95.02,4.43.01.72-.18,1.09-1,1.12-.18.01-.36-.01-.56-.03-.85-.08-1.79-.31-2.3.3-.63.75-.15,2-.22,3.03-.01.08,0,.16,0,.24,0,3.08,0,3.12-3.14,3.13-1,0-1.21.4-1.19,1.28.04,2.44.06,4.88-.01,7.31-.03,1.07.34,1.36,1.37,1.35,4.44-.05,8.87-.02,13.31-.02,2.13,0,2.18,0,2.18-2.16-.01-.98.38-1.23,1.28-1.21,1.67.05,3.35.01,5.03.01,2.24,0,2.27.01,2.32-2.26.02-.84.33-1.14,1.14-1.1.76.04,1.52-.01,2.28.01.67.03.93-.27.92-.93-.03-1.15-.02-2.31,0-3.47.03-2.59-.28-2.29,2.31-2.31,2.08-.01,2.08,0,2.01-2.11ZM172.25,104.04c-.05-.68-.33-.91-.96-.89-.72.02-1.45-.04-2.16.01-.97.09-1.25-.35-1.22-1.26.05-1.43-.02-2.87.02-4.31.02-.78-.18-1.16-1.06-1.16-5,.03-9.99.03-14.98,0-.89,0-1.07.38-1.07,1.16,0,2.38.36,2.2-2.27,2.21h-1.42c.04,1.59.28,1.59,2.25,1.59,2.24,0,4.47.03,6.71-.02.95-.02,1.35.25,1.34,1.27-.01,2.34.03,2.34,2.36,2.34h12.53c-.03-.26-.05-.58-.07-.94ZM146.59,70.68s-.01-.08-.01-.12c.02-.17.01-.32-.02-.44-.09-.4-.43-.54-.97-.52-.8.03-1.6-.02-2.4,0-.67.02-.93-.29-.92-.94.02-1.36,0-2.71,0-4.07h0c0-1.28-.05-2.56.02-3.84.04-.94-.3-1.24-1.24-1.23-3.12.05-6.23.02-9.35.02-2.15,0-2.19,0-2.19,2.15.01.97-.36,1.23-1.27,1.21-2.08-.04-4.15.03-6.23-.02-.91-.03-1.19.31-1.16,1.19.05,1.47,0,2.95.02,4.43.01.72-.18,1.09-1,1.12-.18.01-.36-.01-.56-.03-.85-.08-1.79-.31-2.3.3-.63.75-.15,2-.22,3.03-.01.08,0,.16,0,.24,0,3.08,0,3.12-3.14,3.13-1,0-1.21.4-1.19,1.28.04,2.44.06,4.88-.01,7.31-.03,1.07.34,1.36,1.37,1.35,4.44-.05,8.87-.02,13.31-.02,2.13,0,2.18,0,2.18-2.16-.01-.98.38-1.23,1.28-1.21,1.67.05,3.35.01,5.03.01,2.24,0,2.27.01,2.32-2.26.02-.84.33-1.14,1.14-1.1.76.04,1.52-.01,2.28.01.67.03.93-.27.92-.93-.03-1.15-.02-2.31,0-3.47.03-2.59-.28-2.29,2.31-2.31,2.08-.01,2.08,0,2.01-2.11ZM47.06,18.08c-.11-.11-.27-.17-.43-.17h-1.34c-.34,0-.61.27-.61.6v1.21c0,.34.27.61.61.61h1.34c.34,0,.61-.27.61-.61v-1.2c0-.17-.06-.32-.18-.44ZM47.06,18.08c-.11-.11-.27-.17-.43-.17h-1.34c-.34,0-.61.27-.61.6v1.21c0,.34.27.61.61.61h1.34c.34,0,.61-.27.61-.61v-1.2c0-.17-.06-.32-.18-.44ZM146.59,70.68s-.01-.08-.01-.12c.02-.17.01-.32-.02-.44-.09-.4-.43-.54-.97-.52-.8.03-1.6-.02-2.4,0-.67.02-.93-.29-.92-.94.02-1.36,0-2.71,0-4.07h0c0-1.28-.05-2.56.02-3.84.04-.94-.3-1.24-1.24-1.23-3.12.05-6.23.02-9.35.02-2.15,0-2.19,0-2.19,2.15.01.97-.36,1.23-1.27,1.21-2.08-.04-4.15.03-6.23-.02-.91-.03-1.19.31-1.16,1.19.05,1.47,0,2.95.02,4.43.01.72-.18,1.09-1,1.12-.18.01-.36-.01-.56-.03-.85-.08-1.79-.31-2.3.3-.63.75-.15,2-.22,3.03-.01.08,0,.16,0,.24,0,3.08,0,3.12-3.14,3.13-1,0-1.21.4-1.19,1.28.04,2.44.06,4.88-.01,7.31-.03,1.07.34,1.36,1.37,1.35,4.44-.05,8.87-.02,13.31-.02,2.13,0,2.18,0,2.18-2.16-.01-.98.38-1.23,1.28-1.21,1.67.05,3.35.01,5.03.01,2.24,0,2.27.01,2.32-2.26.02-.84.33-1.14,1.14-1.1.76.04,1.52-.01,2.28.01.67.03.93-.27.92-.93-.03-1.15-.02-2.31,0-3.47.03-2.59-.28-2.29,2.31-2.31,2.08-.01,2.08,0,2.01-2.11ZM176.52,199.81h-.33c-.26,0-.47.2-.49.46l-.02.28c-.02.24-.2.43-.44.46l-.26.03c-.25.02-.44.23-.44.49v.24c0,.13.05.25.14.35.09.09.22.14.35.14h1.38c.33,0,.61-.27.61-.61v-1.34c0-.28-.22-.5-.5-.5ZM172.25,104.04c-.05-.68-.33-.91-.96-.89-.72.02-1.45-.04-2.16.01-.97.09-1.25-.35-1.22-1.26.05-1.43-.02-2.87.02-4.31.02-.78-.18-1.16-1.06-1.16-5,.03-9.99.03-14.98,0-.89,0-1.07.38-1.07,1.16,0,2.38.36,2.2-2.27,2.21h-1.42c.04,1.59.28,1.59,2.25,1.59,2.24,0,4.47.03,6.71-.02.95-.02,1.35.25,1.34,1.27-.01,2.34.03,2.34,2.36,2.34h12.53c-.03-.26-.05-.58-.07-.94ZM146.58,70.56c.02-.17.01-.32-.02-.44-.09-.4-.43-.54-.97-.52-.8.03-1.6-.02-2.4,0-.67.02-.93-.29-.92-.94.02-1.36,0-2.71,0-4.07h0c0-1.28-.05-2.56.02-3.84.04-.94-.3-1.24-1.24-1.23-3.12.05-6.23.02-9.35.02-2.15,0-2.19,0-2.19,2.15.01.97-.36,1.23-1.27,1.21-2.08-.04-4.15.03-6.23-.02-.91-.03-1.19.31-1.16,1.19.05,1.47,0,2.95.02,4.43.01.72-.18,1.09-1,1.12-.18.01-.36-.01-.56-.03-.85-.08-1.79-.31-2.3.3-.63.75-.15,2-.22,3.03-.01.08,0,.16,0,.24,0,3.08,0,3.12-3.14,3.13-1,0-1.21.4-1.19,1.28.04,2.44.06,4.88-.01,7.31-.03,1.07.34,1.36,1.37,1.35,4.44-.05,8.87-.02,13.31-.02,2.13,0,2.18,0,2.18-2.16-.01-.98.38-1.23,1.28-1.21,1.67.05,3.35.01,5.03.01,2.24,0,2.27.01,2.32-2.26.02-.84.33-1.14,1.14-1.1.76.04,1.52-.01,2.28.01.67.03.93-.27.92-.93-.03-1.15-.02-2.31,0-3.47.03-2.59-.28-2.29,2.31-2.31,2.08-.01,2.08,0,2.01-2.11-.01-.04-.01-.08-.01-.12ZM176.52,199.81h-.33c-.26,0-.47.2-.49.46l-.02.28c-.02.24-.2.43-.44.46l-.26.03c-.25.02-.44.23-.44.49v.24c0,.13.05.25.14.35.09.09.22.14.35.14h1.38c.33,0,.61-.27.61-.61v-1.34c0-.28-.22-.5-.5-.5ZM47.06,18.08c-.11-.11-.27-.17-.43-.17h-1.34c-.34,0-.61.27-.61.6v1.21c0,.34.27.61.61.61h1.34c.34,0,.61-.27.61-.61v-1.2c0-.17-.06-.32-.18-.44ZM205.44,0H13.7L0,13.7v191.74l13.7,13.69h191.74l13.7-13.69V13.7l-13.7-13.7ZM59.69,19.6c0-.26.2-.47.46-.49l.27-.02c.26-.02.45-.24.45-.5v-1.48c0-.28.21-.53.49-.59.55-.11.69-.22.76-.69.05-.3.3-.51.6-.51h5.17c.16,0,.32.06.43.18.11.11.18.27.18.43v3.92c0,.26-.2.47-.46.49l-.29.02c-.26.02-.45.24-.45.5v.32c0,.26-.21.47-.47.49l-.32.02c-.25.01-.45.21-.46.47v.27c-.03.26-.24.47-.51.47h-5.24c-.34,0-.61-.28-.61-.61v-2.69ZM50.31,20.89c.01-.15.24-.34.42-.42.07-.03.15-.04.22-.05.31-.03.55-.29.54-.6v-2.68c0-.28.19-.52.45-.59.74-.19.76-.34.8-1.34,0-.12.01-.24.01-.36.01-.3.26-.55.57-.55h1.4c.31,0,.57.25.57.93v2.36l1.22.03c.03-.62.05-1.11.08-1.69.02-.32.29-.58.62-.58h1.16c.48,0,.74.27.74.59v1.38c0,.27-.21.48-.47.5l-.35.02c-.25.01-.45.21-.46.46l-.02.3c-.02.25-.22.44-.46.46l-.28.02c-.26,0-.46.23-.46.49v.31c0,.28.22.5.49.5h.22c.28,0,.5.22.5.49v1.42c0,.33-.28.6-.61.6h-2.63c-.16,0-.31-.06-.43-.18-.11-.11-.17-.27-.16-.43,0-.3-.04-.59-.62-.56-.53.02-.57.27-.56.55.01.17-.05.33-.17.44-.11.12-.27.19-.43.19h-1.32c-.33,0-.61-.27-.61-.61,0-.48,0-.94.03-1.4ZM40.91,18.39c0-.26.2-.47.46-.49l.29-.02c.25-.02.45-.23.45-.49v-.32c0-.27.21-.48.47-.5l.32-.02c.26-.01.46-.23.46-.49v-.24c0-.13.05-.25.14-.34.1-.1.22-.15.35-.15h5.25c.33,0,.61.28.61.61,0,.93,0,1.84-.02,2.74-.01.12-.25.3-.41.35-.25.05-.5.07-.75.06v2c0,.32-.25.58-.57.6-.42.03-.68.22-.71.65-.02.32-.28.57-.6.58h-4.02c-.26,0-.48-.21-.49-.47l-.02-.32c-.01-.25-.21-.46-.46-.47l-.28-.02c-.26-.01-.47-.23-.47-.49v-2.76ZM31.53,15.94c0-.33.27-.61.61-.61h1.32c.33,0,.61.28.61.61v1.23c0,.33.27.61.6.61h1.4c.27,0,.48-.21.49-.47l.02-.3c.02-.26.23-.46.49-.46.44-.03.75-.2.78-.62.03-.32.29-.57.61-.58.54-.01,1.05-.01,1.56.03.13.01.33.35.32.53-.02.24-.14.46-.34.61-.08.04-.18.07-.28.07-.31.03-.54.3-.53.62v1.42c0,.26-.21.48-.47.49l-.35.02c-.26,0-.46.21-.47.47l-.02.33c0,.25-.21.45-.46.46-.53,0-.82.25-.8.8-.01.13-.06.25-.15.34-.1.09-.22.14-.35.13h-.27c-.26,0-.47.21-.49.47l-.02.29c-.01.26-.23.47-.49.47h-1.59c-.27,0-.48-.21-.5-.47v-.28c-.02-.26-.22-.46-.48-.47l-.28-.02c-.27-.01-.47-.23-.47-.49v-5.23ZM22.15,18.4c0-.26.2-.48.46-.49l.25-.02c.26-.02.46-.24.46-.49v-.33c0-.26.2-.47.46-.49l.35-.02c.25-.01.45-.22.46-.47l.02-.29c.01-.26.23-.47.49-.47h5.25c.33,0,.61.27.61.61v2.71c0,.27-.21.48-.47.5h-.23c-.25.02-.45.22-.46.48-.05.88-.11,1.76-.14,2.63-.02.34-.05.61-.49.61h-5.32c-.14,0-.26-.05-.35-.14-.1-.1-.15-.22-.15-.36v-.22c0-.26-.21-.47-.47-.49h-.26c-.27-.03-.47-.24-.47-.51v-2.75ZM165.8,203.04c0,.26-.2.47-.46.49l-.33.02c-.25.02-.44.21-.46.45l-.04.35c-.02.26-.23.45-.49.45-2.19,0-4.31,0-6.44.01-.16,0-.32-.06-.43-.18-.12-.12-.18-.28-.18-.44.02-.79.03-1.57,0-2.35-.03-.56.1-.86.73-.79.14,0,.29-.03.43-.07l.11-1.98c.01-.25.21-.45.46-.47h.29c.26-.03.47-.24.47-.51v-.26c0-.27.22-.49.49-.49h5.25c.34,0,.61.27.61.61v5.16ZM171.4,199.23c0,.28-.22.5-.49.5h-.21c-.28,0-.5.22-.5.5,0,.71.01,1.39,0,2.06-.02.7-.04,1.4-.11,2.1-.06.18-.2.33-.39.38-.9.02-1.8.02-2.72.02-.34,0-.61-.27-.61-.61v-6.45c0-.27.22-.49.49-.49h.28c.13,0,.25-.05.35-.15.09-.09.14-.21.14-.35v-1.4c0-.33.27-.6.61-.6.98,0,1.9-.01,2.82.02.12,0,.32.27.32.42.03,1.33.02,2.67.02,4.05ZM182.06,196.74c0,.25-.19.46-.45.49l-.29.03c-.25.02-.44.24-.44.49v4.01c0,.26-.2.47-.45.49l-.37.03c-.26.03-.45.24-.45.49v.32c0,.26-.2.48-.46.49l-.36.03c-.25.02-.44.22-.46.47v.29c-.02.27-.24.47-.5.47h-5.25c-.34,0-.61-.27-.61-.61v-3.96c0-.26.19-.47.45-.49l.27-.02c.25-.02.44-.22.45-.47l.02-.33c.01-.26.21-.46.46-.47.48-.01.81-.19.84-.68,0-.32.26-.59.59-.59h2.75c.26,0,.47-.2.49-.45l.03-.34c.02-.23.21-.43.45-.45l.31-.03c.25-.02.44-.22.45-.46l.02-.3c.01-.27.22-.48.49-.47h1.41c.33,0,.61.27.61.6v1.42ZM187.61,196.73c0,.25-.19.46-.44.49l-.29.03c-.25.03-.44.24-.44.49v4.05c0,.26-.19.47-.44.49l-.38.04c-.25.03-.44.24-.44.49v1.41c0,.33-.27.6-.6.6h-1.34c-.34,0-.61-.27-.61-.6v-2.66c0-.25.19-.47.44-.49l.42-.05c.25-.02.44-.23.44-.48.01-1.22.03-2.43-.02-3.64-.03-.73.21-1,.92-.89.11-.01.21-.02.32-.06l.07-1.1c.98-.27,1.05-.22,1.23.65.08.19.23.34.43.4.24.06.48.07.73.06v.77ZM196.99,201.84c0,.26-.21.48-.47.49h-.24c-.25.02-.45.22-.47.47l-.03.4c-.02.22-.18.41-.4.45-.59.11-.73.2-.8.66-.05.3-.3.51-.6.51h-5.19c-.34,0-.61-.27-.61-.6v-4.46c.15-.03.31-.05.47-.05.52.05.71-.16.69-.69,0-.4.03-.79.07-1.19.03-.31.29-.55.61-.55h5.27c.27,0,.48.2.5.46v.27c.03.24.22.44.47.46h.27c.26.03.46.25.46.51v2.86ZM202.38,85.28c.01.84-.31,1.18-1.13,1.1-.16-.02-.32,0-.48,0-2.48.01-2.49.01-2.71,2.48-.05.59-.26.88-.87.87-.79-.02-1.6.03-2.39,0-.76-.04-1.05.24-1.07,1.03-.06,2.33-.09,2.33-2.39,2.33q-1.91,0-1.91,1.96c0,1.2-.04,2.4.01,3.6.04.9-.34,1.21-1.2,1.16-.68-.05-1.36.03-2.04-.02-.84-.06-1.11.3-1.1,1.12.02,1.47.01,2.95.01,4.43,0,1.08,0,2.16.02,3.24.02.99-.32,1.41-1.31,1.29-.08-.02-.16-.01-.24-.01-2.3.02-2.38.02-2.53,2.24,0,.06-.01.12-.01.18-.04.64-.25.98-.92.93-.08,0-.16,0-.24,0-2.39.09-3.06.11-3.25-1.11-.08-.48-.08-1.15-.08-2.09,0-.84-.02-1.68.01-2.52.03-.71-.24-1.05-.98-.99-.19.02-.4,0-.6,0-2.17-.01-2.51-.01-2.66-1.53-.03-.26-.05-.58-.07-.94-.05-.68-.33-.91-.96-.89-.72.02-1.45-.04-2.16.01-.97.09-1.25-.35-1.22-1.26.05-1.43-.02-2.87.02-4.31.02-.78-.18-1.16-1.06-1.16-5,.03-9.99.03-14.98,0-.89,0-1.07.38-1.07,1.16,0,2.38.36,2.2-2.27,2.21h-1.42c-2.57.01-5.13.02-7.69-.02-.95,0-1.39.22-1.33,1.27.07,1.43.04,2.87.01,4.31-.02.72.26,1.05.98.98.12,0,.24,0,.36,0q2.98.03,2.98,2.96c0,.92.03,1.84-.01,2.75-.02.71.23,1.07.97,1,.16-.01.32-.01.48,0,.87.06,1.9-.32,2.57.19.69.53.23,1.58.3,2.39.04.56.29.78.83.77.68,0,1.36.05,2.03,0,.97-.09,1.26.33,1.23,1.25-.02.69-.05,1.12,0,1.4.11.51.51.46,1.86.48,2.76.02,2.4-.34,2.43,2.42.02,1.11.03,2.23,0,3.35-.01.66.24.96.91.94.8-.03,1.6.02,2.4-.01.7-.02,1.02.24,1.01.97-.01,3.88-.01,7.75,0,11.63,0,.7-.26,1.04-.98.99-.2-.02-.4,0-.6,0-2.51.02-2.55.01-2.72,2.46-.07,1.01-.71.89-1.34.89-4.55.01-9.11.01-13.66.01h-13.19q-1.78,0-1.79,1.72c0,.24-.02.48-.01.72.04.67-.29.93-.94.91-.45,0-.89,0-1.34.01-.31,0-.62,0-.93-.02-.85-.05-1.1.3-1.11,1.12-.02,2.24-.06,2.24-2.35,2.25q-1.7,0-1.71,1.69t-1.63,1.66q-2.69.01-2.69,2.75c0,3.12.03,6.23,0,9.35-.01.89.29,1.17,1.18,1.17,1.11.01,1.83.02,2.3.18.85.27.85,1.01.85,3.07,0,.88-.03,1.75,0,2.63.02.67-.24.95-.85.98-.04.01-.1.01-.15.01-2.24-.02-4.48-.03-6.71,0-.08,0-.16,0-.24-.01-.65-.05-.85-.41-.86-1.13-.05-2.22-.07-2.22-2.36-2.22-1.94,0-1.95,0-1.95-1.95,0-4.52-.02-9.03.02-13.54.01-.99-.29-1.43-1.29-1.29-.08.01-.16.01-.24,0-.83-.04-1.82.3-2.47-.16-.73-.52-.26-1.56-.32-2.37-.05-.63-.33-.84-.91-.82-.8,0-1.6-.03-2.4,0-.68.02-1.02-.22-1.02-.96.02-2.76.03-5.51,0-8.27-.01-.81.37-1.02,1.1-1.01,2.07.02,4.15-.03,6.23.02.26.01.48-.01.66-.06.48-.11.68-.46.67-1.21-.03-2.59-.38-2.33,2.37-2.34,3.07-.01,6.15-.03,9.23.01.94.02,1.37-.19,1.34-1.25-.05-1.87.01-1.87,1.88-1.88h.36c1.8,0,1.87,0,1.79-1.81-.05-1.2.32-1.72,1.55-1.55.39.05.79,0,1.19,0q1.6,0,1.6-1.56,0-1.63-1.65-1.63c-1.84,0-3.68-.04-5.51.02-.95.02-1.26-.31-1.25-1.25.03-2.32.36-2.11-2.21-2.12-.32-.01-.64.02-.96-.01-.74-.05-.94.31-.97,1.01-.08,2.35-.1,2.35-2.49,2.35-1.8,0-1.87.01-1.79,1.82.06,1.21-.33,1.62-1.55,1.56-1.95-.09-3.91.02-5.87-.04-.93-.03-1.27.26-1.25,1.22.03,2.32.32,2.14-2.21,2.15-.24,0-.48.03-.72,0-1.01-.14-1.43.22-1.39,1.31.06,1.8,0,1.8-1.83,1.81-2.4,0-2.44,0-2.44,2.37,0,.94-.32,1.25-1.26,1.24-3.39-.04-6.79.01-10.18-.04-.99-.01-1.43.3-1.29,1.3.02.15,0,.32,0,.47q-.01,1.6-1.57,1.61c-1.91,0-3.82.03-5.73-.02h-.15c-.86-.02-1.21.24-1.2,1.15.03,2.38.38,2.21-2.26,2.22-.32,0-.64.03-.95,0-.86-.09-1.1.31-1.1,1.12.01,2.38.39,2.23-2.24,2.24-.28,0-.57.03-.84-.01-.95-.11-1.27.29-1.24,1.23.07,1.48,0,2.96.03,4.43.01.77-.28,1.1-1.05,1.06-.72-.03-1.44.03-2.16-.01-.82-.05-1.12.25-1.13,1.09-.03,2.27-.06,2.27-2.33,2.27-1.64,0-3.28.03-4.91-.01-.8-.02-1.14.21-1.15,1.08-.03,2.29-.07,2.29-2.31,2.29-.36,0-.72.02-1.08,0-.67-.04-.92.27-.91.93.02,1.56-.03,3.11.01,4.67.02.83-.3,1.19-1.12,1.11-.08-.01-.16,0-.24,0q-2.97.04-2.97,3.07c0,.76.06,1.52-.01,2.27-.09.99.35,1.22,1.26,1.22,3.07,0,3.07.03,3.07,3.08,0,1.96-.03,3.92.01,5.87.02.9-.23,1.29-1.2,1.28-6.48-.03-12.95-.03-19.42-.01-.8,0-1.15-.24-1.14-1.09.03-2.72.02-5.43,0-8.15,0-.71.26-1.05.99-1,.15.02.32,0,.48,0q2.85-.03,2.85-2.94v-18.93c0-1.61.01-1.61,1.56-1.62h.24c2.39,0,2.44,0,2.5-2.32.03-1.02.58-1.04,1.32-1.04,4.84,0,9.67-.03,14.5.03,1.17.02,1.53-.34,1.48-1.49-.08-1.88-.01-1.87,1.86-1.89,2.79-.03,2.4.37,2.43-2.4.01-1.08.03-2.16,0-3.24-.03-.75.25-1.14,1.03-1.06h.12q2.93-.11,2.93-3c0-.83.05-1.68-.01-2.51-.08-.97.36-1.31,1.26-1.21.08.01.16.01.24,0,.84-.03,1.82.21,2.47-.16.8-.44.29-1.53.34-2.33.05-.93.64-.86,1.25-.86,3.4,0,6.79-.05,10.19.03,1.21.02,1.61-.33,1.54-1.55-.09-1.83-.01-1.82,1.8-1.84,2.87-.03,2.46.39,2.49-2.46,0-.95.06-1.92-.01-2.87-.07-1.02.25-1.51,1.34-1.39.59.07,1.2-.04,1.79.02.64.07.97-.09,1.12-.47.08-.2.1-.46.1-.78-.03-1.87.01-1.87,1.88-1.87h.36c1.8,0,1.87-.01,1.79-1.83-.06-1.21.34-1.72,1.55-1.53.08.01.16,0,.24,0,2.37,0,2.4,0,2.54-2.41.04-.74.36-.97,1.04-.95.72.03,1.44-.03,2.16.01.8.05,1.13-.21,1.14-1.07.03-2.29.07-2.29,2.31-2.29.36,0,.72-.02,1.08,0,.68.04.92-.28.91-.93-.01-2.68-.01-5.35,0-8.03.01-.65-.23-.97-.9-.94-.64.03-1.29-.06-1.92.02-1.27.16-1.54-.42-1.52-1.58.06-3.43.03-6.87.02-10.31v-.08c0-1.46-.03-1.46-1.6-1.47-1.92,0-3.84-.03-5.76,0-.88.02-1.29-.2-1.29-1.19.01-2.17-.04-2.17-2.16-2.17-1.68,0-3.36-.04-5.04.01-.88.02-1.18-.3-1.18-1.18-.02-2.19-.06-2.19-2.28-2.19-.32,0-.64-.02-.96,0-.75.06-1.07-.25-1.07-1.03.02-3.83.02-7.67,0-11.5,0-.77.28-1.1,1.05-1.06.72.03,1.44-.03,2.16.01.82.06,1.12-.25,1.13-1.09.03-2.27.06-2.27,2.33-2.27,4.48,0,8.95.03,13.42-.02,1.09-.01,1.47.31,1.44,1.42-.07,2.55-.04,5.11-.01,7.67.02.88-.31,1.25-1.18,1.17-.36-.04-.72-.01-1.08-.01-2.11,0-2.44.43-2.06,2.54.14.78.69.64,1.18.64,3.08.01,6.16.01,9.23.01h.58c3.09,0,6.16-.02,9.25.01.88.01,1.22-.27,1.18-1.17-.06-1.39-.07-2.79,0-4.19.05-.99-.35-1.23-1.26-1.21-1.95.05-3.9,0-5.84.03h-.27c-.88.02-1.3-.21-1.29-1.2.04-4.87.03-9.75,0-14.62,0-.91.37-1.23,1.21-1.14.16.02.32,0,.48,0,.84.05,1.82-.3,2.47.16.74.53.27,1.57.33,2.37.03.41.15.64.4.74.13.07.3.09.5.09,2.3-.01,4.61-.01,6.9-.01,2.74,0,5.47,0,8.2.01.72,0,.84-.38.87-.98.1-2.38.12-2.38,2.47-2.38,1.68,0,3.36-.03,5.04.01.82.03,1.12-.25,1.13-1.09.02-2.27.06-2.27,2.33-2.27,4.47,0,8.95.03,13.42-.02,1.08-.01,1.5.3,1.44,1.42-.08,1.43,0,2.87-.03,4.31-.01.7.23,1.06.97,1,.16-.02.32-.01.48,0,.87.05,1.91-.33,2.57.19.69.53.24,1.57.3,2.39.04.56.29.78.83.77.8-.01,1.6.04,2.4,0,.47-.03.77.08.93.32.13.19.18.46.17.81-.04,1.52.02,3.03-.02,4.55-.02.79.29,1.06,1.06,1.04,1.28-.02,2.56-.03,3.84-.02.83,0,1.67,0,2.51.03.88.02,1.08-.36,1.08-1.15-.01-2.38-.38-2.21,2.26-2.22h.12c2.32.01,2.12-.15,2.06,2.05-.03,1.1.39,1.36,1.4,1.32,1.95-.06,3.91.03,5.87-.03,1-.03,1.42.23,1.41,1.33-.05,4.79-.04,9.58-.01,14.38.01.9-.25,1.35-1.22,1.26-.6-.06-1.21.06-1.8-.03-1.38-.19-1.31.68-1.33,1.62-.01.99.02,1.81,1.36,1.59.15-.03.32-.01.48-.01,2.38.01,2.41.01,2.48,2.36.02.82.36,1.02,1.1,1.01,1.99-.03,3.99-.05,5.99.01.9.02,1.17-.31,1.16-1.19-.03-3.59.03-7.19-.04-10.78-.02-1.16.35-1.64,1.5-1.47.16.02.32,0,.48,0,2.28,0,2.31,0,2.35-2.23.02-.81.26-1.15,1.11-1.14,2.2.04,4.39.04,6.59,0,.83-.01,1.13.29,1.12,1.12-.02,4.91-.02,9.83,0,14.74ZM193.9,199.83h-2.56c-.34,0-.61.28-.61.61v1.87c0,.24.2.44.45.44h1.6c.23,0,.43-.18.44-.42.02-.28.04-.55.05-.82.02-.23.2-.43.43-.46l.27-.03c.24-.03.43-.24.43-.49v-.2c0-.13-.06-.26-.15-.35-.09-.09-.22-.15-.35-.15ZM176.52,199.81h-.33c-.26,0-.47.2-.49.46l-.02.28c-.02.24-.2.43-.44.46l-.26.03c-.25.02-.44.23-.44.49v.24c0,.13.05.25.14.35.09.09.22.14.35.14h1.38c.33,0,.61-.27.61-.61v-1.34c0-.28-.22-.5-.5-.5ZM146.58,70.56c.02-.17.01-.32-.02-.44-.09-.4-.43-.54-.97-.52-.8.03-1.6-.02-2.4,0-.67.02-.93-.29-.92-.94.02-1.36,0-2.71,0-4.07h0c0-1.28-.05-2.56.02-3.84.04-.94-.3-1.24-1.24-1.23-3.12.05-6.23.02-9.35.02-2.15,0-2.19,0-2.19,2.15.01.97-.36,1.23-1.27,1.21-2.08-.04-4.15.03-6.23-.02-.91-.03-1.19.31-1.16,1.19.05,1.47,0,2.95.02,4.43.01.72-.18,1.09-1,1.12-.18.01-.36-.01-.56-.03-.85-.08-1.79-.31-2.3.3-.63.75-.15,2-.22,3.03-.01.08,0,.16,0,.24,0,3.08,0,3.12-3.14,3.13-1,0-1.21.4-1.19,1.28.04,2.44.06,4.88-.01,7.31-.03,1.07.34,1.36,1.37,1.35,4.44-.05,8.87-.02,13.31-.02,2.13,0,2.18,0,2.18-2.16-.01-.98.38-1.23,1.28-1.21,1.67.05,3.35.01,5.03.01,2.24,0,2.27.01,2.32-2.26.02-.84.33-1.14,1.14-1.1.76.04,1.52-.01,2.28.01.67.03.93-.27.92-.93-.03-1.15-.02-2.31,0-3.47.03-2.59-.28-2.29,2.31-2.31,2.08-.01,2.08,0,2.01-2.11-.01-.04-.01-.08-.01-.12ZM45.29,20.33h1.34c.34,0,.61-.27.61-.61v-1.2c0-.17-.06-.32-.18-.44-.11-.11-.27-.17-.43-.17h-1.34c-.34,0-.61.27-.61.6v1.21c0,.34.27.61.61.61ZM47.06,18.08c-.11-.11-.27-.17-.43-.17h-1.34c-.34,0-.61.27-.61.6v1.21c0,.34.27.61.61.61h1.34c.34,0,.61-.27.61-.61v-1.2c0-.17-.06-.32-.18-.44ZM176.52,199.81h-.33c-.26,0-.47.2-.49.46l-.02.28c-.02.24-.2.43-.44.46l-.26.03c-.25.02-.44.23-.44.49v.24c0,.13.05.25.14.35.09.09.22.14.35.14h1.38c.33,0,.61-.27.61-.61v-1.34c0-.28-.22-.5-.5-.5ZM146.59,70.68s-.01-.08-.01-.12c.02-.17.01-.32-.02-.44-.09-.4-.43-.54-.97-.52-.8.03-1.6-.02-2.4,0-.67.02-.93-.29-.92-.94.02-1.36,0-2.71,0-4.07h0c0-1.28-.05-2.56.02-3.84.04-.94-.3-1.24-1.24-1.23-3.12.05-6.23.02-9.35.02-2.15,0-2.19,0-2.19,2.15.01.97-.36,1.23-1.27,1.21-2.08-.04-4.15.03-6.23-.02-.91-.03-1.19.31-1.16,1.19.05,1.47,0,2.95.02,4.43.01.72-.18,1.09-1,1.12-.18.01-.36-.01-.56-.03-.85-.08-1.79-.31-2.3.3-.63.75-.15,2-.22,3.03-.01.08,0,.16,0,.24,0,3.08,0,3.12-3.14,3.13-1,0-1.21.4-1.19,1.28.04,2.44.06,4.88-.01,7.31-.03,1.07.34,1.36,1.37,1.35,4.44-.05,8.87-.02,13.31-.02,2.13,0,2.18,0,2.18-2.16-.01-.98.38-1.23,1.28-1.21,1.67.05,3.35.01,5.03.01,2.24,0,2.27.01,2.32-2.26.02-.84.33-1.14,1.14-1.1.76.04,1.52-.01,2.28.01.67.03.93-.27.92-.93-.03-1.15-.02-2.31,0-3.47.03-2.59-.28-2.29,2.31-2.31,2.08-.01,2.08,0,2.01-2.11ZM172.25,104.04c-.05-.68-.33-.91-.96-.89-.72.02-1.45-.04-2.16.01-.97.09-1.25-.35-1.22-1.26.05-1.43-.02-2.87.02-4.31.02-.78-.18-1.16-1.06-1.16-5,.03-9.99.03-14.98,0-.89,0-1.07.38-1.07,1.16,0,2.38.36,2.2-2.27,2.21h-1.42c.04,1.59.28,1.59,2.25,1.59,2.24,0,4.47.03,6.71-.02.95-.02,1.35.25,1.34,1.27-.01,2.34.03,2.34,2.36,2.34h12.53c-.03-.26-.05-.58-.07-.94ZM176.52,199.81h-.33c-.26,0-.47.2-.49.46l-.02.28c-.02.24-.2.43-.44.46l-.26.03c-.25.02-.44.23-.44.49v.24c0,.13.05.25.14.35.09.09.22.14.35.14h1.38c.33,0,.61-.27.61-.61v-1.34c0-.28-.22-.5-.5-.5ZM146.59,70.68s-.01-.08-.01-.12c.02-.17.01-.32-.02-.44-.09-.4-.43-.54-.97-.52-.8.03-1.6-.02-2.4,0-.67.02-.93-.29-.92-.94.02-1.36,0-2.71,0-4.07h0c0-1.28-.05-2.56.02-3.84.04-.94-.3-1.24-1.24-1.23-3.12.05-6.23.02-9.35.02-2.15,0-2.19,0-2.19,2.15.01.97-.36,1.23-1.27,1.21-2.08-.04-4.15.03-6.23-.02-.91-.03-1.19.31-1.16,1.19.05,1.47,0,2.95.02,4.43.01.72-.18,1.09-1,1.12-.18.01-.36-.01-.56-.03-.85-.08-1.79-.31-2.3.3-.63.75-.15,2-.22,3.03-.01.08,0,.16,0,.24,0,3.08,0,3.12-3.14,3.13-1,0-1.21.4-1.19,1.28.04,2.44.06,4.88-.01,7.31-.03,1.07.34,1.36,1.37,1.35,4.44-.05,8.87-.02,13.31-.02,2.13,0,2.18,0,2.18-2.16-.01-.98.38-1.23,1.28-1.21,1.67.05,3.35.01,5.03.01,2.24,0,2.27.01,2.32-2.26.02-.84.33-1.14,1.14-1.1.76.04,1.52-.01,2.28.01.67.03.93-.27.92-.93-.03-1.15-.02-2.31,0-3.47.03-2.59-.28-2.29,2.31-2.31,2.08-.01,2.08,0,2.01-2.11ZM47.06,18.08c-.11-.11-.27-.17-.43-.17h-1.34c-.34,0-.61.27-.61.6v1.21c0,.34.27.61.61.61h1.34c.34,0,.61-.27.61-.61v-1.2c0-.17-.06-.32-.18-.44ZM47.06,18.08c-.11-.11-.27-.17-.43-.17h-1.34c-.34,0-.61.27-.61.6v1.21c0,.34.27.61.61.61h1.34c.34,0,.61-.27.61-.61v-1.2c0-.17-.06-.32-.18-.44ZM146.59,70.68s-.01-.08-.01-.12c.02-.17.01-.32-.02-.44-.09-.4-.43-.54-.97-.52-.8.03-1.6-.02-2.4,0-.67.02-.93-.29-.92-.94.02-1.36,0-2.71,0-4.07h0c0-1.28-.05-2.56.02-3.84.04-.94-.3-1.24-1.24-1.23-3.12.05-6.23.02-9.35.02-2.15,0-2.19,0-2.19,2.15.01.97-.36,1.23-1.27,1.21-2.08-.04-4.15.03-6.23-.02-.91-.03-1.19.31-1.16,1.19.05,1.47,0,2.95.02,4.43.01.72-.18,1.09-1,1.12-.18.01-.36-.01-.56-.03-.85-.08-1.79-.31-2.3.3-.63.75-.15,2-.22,3.03-.01.08,0,.16,0,.24,0,3.08,0,3.12-3.14,3.13-1,0-1.21.4-1.19,1.28.04,2.44.06,4.88-.01,7.31-.03,1.07.34,1.36,1.37,1.35,4.44-.05,8.87-.02,13.31-.02,2.13,0,2.18,0,2.18-2.16-.01-.98.38-1.23,1.28-1.21,1.67.05,3.35.01,5.03.01,2.24,0,2.27.01,2.32-2.26.02-.84.33-1.14,1.14-1.1.76.04,1.52-.01,2.28.01.67.03.93-.27.92-.93-.03-1.15-.02-2.31,0-3.47.03-2.59-.28-2.29,2.31-2.31,2.08-.01,2.08,0,2.01-2.11ZM172.25,104.04c-.05-.68-.33-.91-.96-.89-.72.02-1.45-.04-2.16.01-.97.09-1.25-.35-1.22-1.26.05-1.43-.02-2.87.02-4.31.02-.78-.18-1.16-1.06-1.16-5,.03-9.99.03-14.98,0-.89,0-1.07.38-1.07,1.16,0,2.38.36,2.2-2.27,2.21h-1.42c.04,1.59.28,1.59,2.25,1.59,2.24,0,4.47.03,6.71-.02.95-.02,1.35.25,1.34,1.27-.01,2.34.03,2.34,2.36,2.34h12.53c-.03-.26-.05-.58-.07-.94ZM146.59,70.68s-.01-.08-.01-.12c.02-.17.01-.32-.02-.44-.09-.4-.43-.54-.97-.52-.8.03-1.6-.02-2.4,0-.67.02-.93-.29-.92-.94.02-1.36,0-2.71,0-4.07h0c0-1.28-.05-2.56.02-3.84.04-.94-.3-1.24-1.24-1.23-3.12.05-6.23.02-9.35.02-2.15,0-2.19,0-2.19,2.15.01.97-.36,1.23-1.27,1.21-2.08-.04-4.15.03-6.23-.02-.91-.03-1.19.31-1.16,1.19.05,1.47,0,2.95.02,4.43.01.72-.18,1.09-1,1.12-.18.01-.36-.01-.56-.03-.85-.08-1.79-.31-2.3.3-.63.75-.15,2-.22,3.03-.01.08,0,.16,0,.24,0,3.08,0,3.12-3.14,3.13-1,0-1.21.4-1.19,1.28.04,2.44.06,4.88-.01,7.31-.03,1.07.34,1.36,1.37,1.35,4.44-.05,8.87-.02,13.31-.02,2.13,0,2.18,0,2.18-2.16-.01-.98.38-1.23,1.28-1.21,1.67.05,3.35.01,5.03.01,2.24,0,2.27.01,2.32-2.26.02-.84.33-1.14,1.14-1.1.76.04,1.52-.01,2.28.01.67.03.93-.27.92-.93-.03-1.15-.02-2.31,0-3.47.03-2.59-.28-2.29,2.31-2.31,2.08-.01,2.08,0,2.01-2.11ZM47.06,18.08c-.11-.11-.27-.17-.43-.17h-1.34c-.34,0-.61.27-.61.6v1.21c0,.34.27.61.61.61h1.34c.34,0,.61-.27.61-.61v-1.2c0-.17-.06-.32-.18-.44ZM47.06,18.08c-.11-.11-.27-.17-.43-.17h-1.34c-.34,0-.61.27-.61.6v1.21c0,.34.27.61.61.61h1.34c.34,0,.61-.27.61-.61v-1.2c0-.17-.06-.32-.18-.44ZM146.59,70.68s-.01-.08-.01-.12c.02-.17.01-.32-.02-.44-.09-.4-.43-.54-.97-.52-.8.03-1.6-.02-2.4,0-.67.02-.93-.29-.92-.94.02-1.36,0-2.71,0-4.07h0c0-1.28-.05-2.56.02-3.84.04-.94-.3-1.24-1.24-1.23-3.12.05-6.23.02-9.35.02-2.15,0-2.19,0-2.19,2.15.01.97-.36,1.23-1.27,1.21-2.08-.04-4.15.03-6.23-.02-.91-.03-1.19.31-1.16,1.19.05,1.47,0,2.95.02,4.43.01.72-.18,1.09-1,1.12-.18.01-.36-.01-.56-.03-.85-.08-1.79-.31-2.3.3-.63.75-.15,2-.22,3.03-.01.08,0,.16,0,.24,0,3.08,0,3.12-3.14,3.13-1,0-1.21.4-1.19,1.28.04,2.44.06,4.88-.01,7.31-.03,1.07.34,1.36,1.37,1.35,4.44-.05,8.87-.02,13.31-.02,2.13,0,2.18,0,2.18-2.16-.01-.98.38-1.23,1.28-1.21,1.67.05,3.35.01,5.03.01,2.24,0,2.27.01,2.32-2.26.02-.84.33-1.14,1.14-1.1.76.04,1.52-.01,2.28.01.67.03.93-.27.92-.93-.03-1.15-.02-2.31,0-3.47.03-2.59-.28-2.29,2.31-2.31,2.08-.01,2.08,0,2.01-2.11ZM172.25,104.04c-.05-.68-.33-.91-.96-.89-.72.02-1.45-.04-2.16.01-.97.09-1.25-.35-1.22-1.26.05-1.43-.02-2.87.02-4.31.02-.78-.18-1.16-1.06-1.16-5,.03-9.99.03-14.98,0-.89,0-1.07.38-1.07,1.16,0,2.38.36,2.2-2.27,2.21h-1.42c.04,1.59.28,1.59,2.25,1.59,2.24,0,4.47.03,6.71-.02.95-.02,1.35.25,1.34,1.27-.01,2.34.03,2.34,2.36,2.34h12.53c-.03-.26-.05-.58-.07-.94ZM146.59,70.68s-.01-.08-.01-.12c.02-.17.01-.32-.02-.44-.09-.4-.43-.54-.97-.52-.8.03-1.6-.02-2.4,0-.67.02-.93-.29-.92-.94.02-1.36,0-2.71,0-4.07h0c0-1.28-.05-2.56.02-3.84.04-.94-.3-1.24-1.24-1.23-3.12.05-6.23.02-9.35.02-2.15,0-2.19,0-2.19,2.15.01.97-.36,1.23-1.27,1.21-2.08-.04-4.15.03-6.23-.02-.91-.03-1.19.31-1.16,1.19.05,1.47,0,2.95.02,4.43.01.72-.18,1.09-1,1.12-.18.01-.36-.01-.56-.03-.85-.08-1.79-.31-2.3.3-.63.75-.15,2-.22,3.03-.01.08,0,.16,0,.24,0,3.08,0,3.12-3.14,3.13-1,0-1.21.4-1.19,1.28.04,2.44.06,4.88-.01,7.31-.03,1.07.34,1.36,1.37,1.35,4.44-.05,8.87-.02,13.31-.02,2.13,0,2.18,0,2.18-2.16-.01-.98.38-1.23,1.28-1.21,1.67.05,3.35.01,5.03.01,2.24,0,2.27.01,2.32-2.26.02-.84.33-1.14,1.14-1.1.76.04,1.52-.01,2.28.01.67.03.93-.27.92-.93-.03-1.15-.02-2.31,0-3.47.03-2.59-.28-2.29,2.31-2.31,2.08-.01,2.08,0,2.01-2.11ZM47.06,18.08c-.11-.11-.27-.17-.43-.17h-1.34c-.34,0-.61.27-.61.6v1.21c0,.34.27.61.61.61h1.34c.34,0,.61-.27.61-.61v-1.2c0-.17-.06-.32-.18-.44ZM47.06,18.08c-.11-.11-.27-.17-.43-.17h-1.34c-.34,0-.61.27-.61.6v1.21c0,.34.27.61.61.61h1.34c.34,0,.61-.27.61-.61v-1.2c0-.17-.06-.32-.18-.44ZM146.59,70.68s-.01-.08-.01-.12c.02-.17.01-.32-.02-.44-.09-.4-.43-.54-.97-.52-.8.03-1.6-.02-2.4,0-.67.02-.93-.29-.92-.94.02-1.36,0-2.71,0-4.07h0c0-1.28-.05-2.56.02-3.84.04-.94-.3-1.24-1.24-1.23-3.12.05-6.23.02-9.35.02-2.15,0-2.19,0-2.19,2.15.01.97-.36,1.23-1.27,1.21-2.08-.04-4.15.03-6.23-.02-.91-.03-1.19.31-1.16,1.19.05,1.47,0,2.95.02,4.43.01.72-.18,1.09-1,1.12-.18.01-.36-.01-.56-.03-.85-.08-1.79-.31-2.3.3-.63.75-.15,2-.22,3.03-.01.08,0,.16,0,.24,0,3.08,0,3.12-3.14,3.13-1,0-1.21.4-1.19,1.28.04,2.44.06,4.88-.01,7.31-.03,1.07.34,1.36,1.37,1.35,4.44-.05,8.87-.02,13.31-.02,2.13,0,2.18,0,2.18-2.16-.01-.98.38-1.23,1.28-1.21,1.67.05,3.35.01,5.03.01,2.24,0,2.27.01,2.32-2.26.02-.84.33-1.14,1.14-1.1.76.04,1.52-.01,2.28.01.67.03.93-.27.92-.93-.03-1.15-.02-2.31,0-3.47.03-2.59-.28-2.29,2.31-2.31,2.08-.01,2.08,0,2.01-2.11ZM172.25,104.04c-.05-.68-.33-.91-.96-.89-.72.02-1.45-.04-2.16.01-.97.09-1.25-.35-1.22-1.26.05-1.43-.02-2.87.02-4.31.02-.78-.18-1.16-1.06-1.16-5,.03-9.99.03-14.98,0-.89,0-1.07.38-1.07,1.16,0,2.38.36,2.2-2.27,2.21h-1.42c.04,1.59.28,1.59,2.25,1.59,2.24,0,4.47.03,6.71-.02.95-.02,1.35.25,1.34,1.27-.01,2.34.03,2.34,2.36,2.34h12.53c-.03-.26-.05-.58-.07-.94ZM146.59,70.68s-.01-.08-.01-.12c.02-.17.01-.32-.02-.44-.09-.4-.43-.54-.97-.52-.8.03-1.6-.02-2.4,0-.67.02-.93-.29-.92-.94.02-1.36,0-2.71,0-4.07h0c0-1.28-.05-2.56.02-3.84.04-.94-.3-1.24-1.24-1.23-3.12.05-6.23.02-9.35.02-2.15,0-2.19,0-2.19,2.15.01.97-.36,1.23-1.27,1.21-2.08-.04-4.15.03-6.23-.02-.91-.03-1.19.31-1.16,1.19.05,1.47,0,2.95.02,4.43.01.72-.18,1.09-1,1.12-.18.01-.36-.01-.56-.03-.85-.08-1.79-.31-2.3.3-.63.75-.15,2-.22,3.03-.01.08,0,.16,0,.24,0,3.08,0,3.12-3.14,3.13-1,0-1.21.4-1.19,1.28.04,2.44.06,4.88-.01,7.31-.03,1.07.34,1.36,1.37,1.35,4.44-.05,8.87-.02,13.31-.02,2.13,0,2.18,0,2.18-2.16-.01-.98.38-1.23,1.28-1.21,1.67.05,3.35.01,5.03.01,2.24,0,2.27.01,2.32-2.26.02-.84.33-1.14,1.14-1.1.76.04,1.52-.01,2.28.01.67.03.93-.27.92-.93-.03-1.15-.02-2.31,0-3.47.03-2.59-.28-2.29,2.31-2.31,2.08-.01,2.08,0,2.01-2.11ZM47.06,18.08c-.11-.11-.27-.17-.43-.17h-1.34c-.34,0-.61.27-.61.6v1.21c0,.34.27.61.61.61h1.34c.34,0,.61-.27.61-.61v-1.2c0-.17-.06-.32-.18-.44ZM146.59,70.68s-.01-.08-.01-.12c.02-.17.01-.32-.02-.44-.09-.4-.43-.54-.97-.52-.8.03-1.6-.02-2.4,0-.67.02-.93-.29-.92-.94.02-1.36,0-2.71,0-4.07h0c0-1.28-.05-2.56.02-3.84.04-.94-.3-1.24-1.24-1.23-3.12.05-6.23.02-9.35.02-2.15,0-2.19,0-2.19,2.15.01.97-.36,1.23-1.27,1.21-2.08-.04-4.15.03-6.23-.02-.91-.03-1.19.31-1.16,1.19.05,1.47,0,2.95.02,4.43.01.72-.18,1.09-1,1.12-.18.01-.36-.01-.56-.03-.85-.08-1.79-.31-2.3.3-.63.75-.15,2-.22,3.03-.01.08,0,.16,0,.24,0,3.08,0,3.12-3.14,3.13-1,0-1.21.4-1.19,1.28.04,2.44.06,4.88-.01,7.31-.03,1.07.34,1.36,1.37,1.35,4.44-.05,8.87-.02,13.31-.02,2.13,0,2.18,0,2.18-2.16-.01-.98.38-1.23,1.28-1.21,1.67.05,3.35.01,5.03.01,2.24,0,2.27.01,2.32-2.26.02-.84.33-1.14,1.14-1.1.76.04,1.52-.01,2.28.01.67.03.93-.27.92-.93-.03-1.15-.02-2.31,0-3.47.03-2.59-.28-2.29,2.31-2.31,2.08-.01,2.08,0,2.01-2.11ZM172.25,104.04c-.05-.68-.33-.91-.96-.89-.72.02-1.45-.04-2.16.01-.97.09-1.25-.35-1.22-1.26.05-1.43-.02-2.87.02-4.31.02-.78-.18-1.16-1.06-1.16-5,.03-9.99.03-14.98,0-.89,0-1.07.38-1.07,1.16,0,2.38.36,2.2-2.27,2.21h-1.42c.04,1.59.28,1.59,2.25,1.59,2.24,0,4.47.03,6.71-.02.95-.02,1.35.25,1.34,1.27-.01,2.34.03,2.34,2.36,2.34h12.53c-.03-.26-.05-.58-.07-.94ZM146.59,70.68s-.01-.08-.01-.12c.02-.17.01-.32-.02-.44-.09-.4-.43-.54-.97-.52-.8.03-1.6-.02-2.4,0-.67.02-.93-.29-.92-.94.02-1.36,0-2.71,0-4.07h0c0-1.28-.05-2.56.02-3.84.04-.94-.3-1.24-1.24-1.23-3.12.05-6.23.02-9.35.02-2.15,0-2.19,0-2.19,2.15.01.97-.36,1.23-1.27,1.21-2.08-.04-4.15.03-6.23-.02-.91-.03-1.19.31-1.16,1.19.05,1.47,0,2.95.02,4.43.01.72-.18,1.09-1,1.12-.18.01-.36-.01-.56-.03-.85-.08-1.79-.31-2.3.3-.63.75-.15,2-.22,3.03-.01.08,0,.16,0,.24,0,3.08,0,3.12-3.14,3.13-1,0-1.21.4-1.19,1.28.04,2.44.06,4.88-.01,7.31-.03,1.07.34,1.36,1.37,1.35,4.44-.05,8.87-.02,13.31-.02,2.13,0,2.18,0,2.18-2.16-.01-.98.38-1.23,1.28-1.21,1.67.05,3.35.01,5.03.01,2.24,0,2.27.01,2.32-2.26.02-.84.33-1.14,1.14-1.1.76.04,1.52-.01,2.28.01.67.03.93-.27.92-.93-.03-1.15-.02-2.31,0-3.47.03-2.59-.28-2.29,2.31-2.31,2.08-.01,2.08,0,2.01-2.11ZM146.59,70.68s-.01-.08-.01-.12c.02-.17.01-.32-.02-.44-.09-.4-.43-.54-.97-.52-.8.03-1.6-.02-2.4,0-.67.02-.93-.29-.92-.94.02-1.36,0-2.71,0-4.07h0c0-1.28-.05-2.56.02-3.84.04-.94-.3-1.24-1.24-1.23-3.12.05-6.23.02-9.35.02-2.15,0-2.19,0-2.19,2.15.01.97-.36,1.23-1.27,1.21-2.08-.04-4.15.03-6.23-.02-.91-.03-1.19.31-1.16,1.19.05,1.47,0,2.95.02,4.43.01.72-.18,1.09-1,1.12-.18.01-.36-.01-.56-.03-.85-.08-1.79-.31-2.3.3-.63.75-.15,2-.22,3.03-.01.08,0,.16,0,.24,0,3.08,0,3.12-3.14,3.13-1,0-1.21.4-1.19,1.28.04,2.44.06,4.88-.01,7.31-.03,1.07.34,1.36,1.37,1.35,4.44-.05,8.87-.02,13.31-.02,2.13,0,2.18,0,2.18-2.16-.01-.98.38-1.23,1.28-1.21,1.67.05,3.35.01,5.03.01,2.24,0,2.27.01,2.32-2.26.02-.84.33-1.14,1.14-1.1.76.04,1.52-.01,2.28.01.67.03.93-.27.92-.93-.03-1.15-.02-2.31,0-3.47.03-2.59-.28-2.29,2.31-2.31,2.08-.01,2.08,0,2.01-2.11ZM172.25,104.04c-.05-.68-.33-.91-.96-.89-.72.02-1.45-.04-2.16.01-.97.09-1.25-.35-1.22-1.26.05-1.43-.02-2.87.02-4.31.02-.78-.18-1.16-1.06-1.16-5,.03-9.99.03-14.98,0-.89,0-1.07.38-1.07,1.16,0,2.38.36,2.2-2.27,2.21h-1.42c.04,1.59.28,1.59,2.25,1.59,2.24,0,4.47.03,6.71-.02.95-.02,1.35.25,1.34,1.27-.01,2.34.03,2.34,2.36,2.34h12.53c-.03-.26-.05-.58-.07-.94ZM146.59,70.68s-.01-.08-.01-.12c.02-.17.01-.32-.02-.44-.09-.4-.43-.54-.97-.52-.8.03-1.6-.02-2.4,0-.67.02-.93-.29-.92-.94.02-1.36,0-2.71,0-4.07h0c0-1.28-.05-2.56.02-3.84.04-.94-.3-1.24-1.24-1.23-3.12.05-6.23.02-9.35.02-2.15,0-2.19,0-2.19,2.15.01.97-.36,1.23-1.27,1.21-2.08-.04-4.15.03-6.23-.02-.91-.03-1.19.31-1.16,1.19.05,1.47,0,2.95.02,4.43.01.72-.18,1.09-1,1.12-.18.01-.36-.01-.56-.03-.85-.08-1.79-.31-2.3.3-.63.75-.15,2-.22,3.03-.01.08,0,.16,0,.24,0,3.08,0,3.12-3.14,3.13-1,0-1.21.4-1.19,1.28.04,2.44.06,4.88-.01,7.31-.03,1.07.34,1.36,1.37,1.35,4.44-.05,8.87-.02,13.31-.02,2.13,0,2.18,0,2.18-2.16-.01-.98.38-1.23,1.28-1.21,1.67.05,3.35.01,5.03.01,2.24,0,2.27.01,2.32-2.26.02-.84.33-1.14,1.14-1.1.76.04,1.52-.01,2.28.01.67.03.93-.27.92-.93-.03-1.15-.02-2.31,0-3.47.03-2.59-.28-2.29,2.31-2.31,2.08-.01,2.08,0,2.01-2.11ZM146.59,70.68s-.01-.08-.01-.12c.02-.17.01-.32-.02-.44-.16.09-.37.13-.66.12-1.55-.04-3.11.03-4.67-.02-.92-.03-1.36.27-1.25,1.23.04.27-.02.56.01.83.12.97-.23,1.35-1.26,1.33-2.29-.05-2.08-.25-2.1,2.13,0,.12-.01.24,0,.36.1.85-.3,1.12-1.12,1.09-1.15-.05-2.31-.01-3.47-.01-2.29,0-2.32,0-2.34,2.26-.01.83-.29,1.13-1.12,1.11-1.52-.05-3.04-.06-4.55,0-.93.04-1.18-.35-1.14-1.2.05-1.08.01-2.16.01-3.24,0-2.46,0-2.5-2.45-2.51-.9,0-1.18-.31-1.16-1.19.02-.94.02-1.88.02-2.82-.85-.08-1.79-.31-2.3.3-.63.75-.15,2-.22,3.03-.01.08,0,.16,0,.24,0,3.08,0,3.12-3.14,3.13-1,0-1.21.4-1.19,1.28.04,2.44.06,4.88-.01,7.31-.03,1.07.34,1.36,1.37,1.35,4.44-.05,8.87-.02,13.31-.02,2.13,0,2.18,0,2.18-2.16-.01-.98.38-1.23,1.28-1.21,1.67.05,3.35.01,5.03.01,2.24,0,2.27.01,2.32-2.26.02-.84.33-1.14,1.14-1.1.76.04,1.52-.01,2.28.01.67.03.93-.27.92-.93-.03-1.15-.02-2.31,0-3.47.03-2.59-.28-2.29,2.31-2.31,2.08-.01,2.08,0,2.01-2.11ZM172.25,104.04c-.05-.68-.33-.91-.96-.89-.72.02-1.45-.04-2.16.01-.97.09-1.25-.35-1.22-1.26.05-1.43-.02-2.87.02-4.31.02-.78-.18-1.16-1.06-1.16-5,.03-9.99.03-14.98,0-.89,0-1.07.38-1.07,1.16,0,2.38.36,2.2-2.27,2.21h-1.42c.04,1.59.28,1.59,2.25,1.59,2.24,0,4.47.03,6.71-.02.95-.02,1.35.25,1.34,1.27-.01,2.34.03,2.34,2.36,2.34h12.53c-.03-.26-.05-.58-.07-.94Z"/><path class="cls-2" d="M745.42,110.71c-29.93,0-54.2,24.27-54.2,54.21s24.27,54.21,54.2,54.21,54.21-24.27,54.21-54.21-24.26-54.21-54.21-54.21ZM745.43,184.45c-10.78,0-19.53-8.76-19.53-19.53s8.76-19.52,19.53-19.52,19.52,8.76,19.52,19.52-8.76,19.53-19.52,19.53Z"/><path class="cls-2" d="M745.42,110.71c-29.93,0-54.2,24.27-54.2,54.21s24.27,54.21,54.2,54.21,54.21-24.27,54.21-54.21-24.26-54.21-54.21-54.21ZM745.43,184.45c-10.78,0-19.53-8.76-19.53-19.53s8.76-19.52,19.53-19.52,19.52,8.76,19.52,19.52-8.76,19.53-19.52,19.53Z"/><path class="cls-2" d="M436.59,110.7c-2.08,0-3.76,1.69-3.76,3.76v50.44c0,29.57,23.68,53.62,53.12,54.19,30.4.59,55.29-24.86,55.29-55.26v-49.37c0-2.08-1.69-3.76-3.76-3.76h-27.16c-2.08,0-3.76,1.69-3.76,3.76v49.87c0,10.5-8.05,19.56-18.54,20.08-11.21.56-20.52-8.4-20.52-19.51v-.16h.01v-50.28c0-2.08-1.69-3.76-3.76-3.76h-27.16Z"/><path class="cls-2" d="M578.24,3.78c0-2.08-1.69-3.76-3.76-3.76h-50.44c-29.57,0-53.62,23.68-54.19,53.12-.59,30.4,24.86,55.29,55.26,55.29h49.37c2.08,0,3.76-1.69,3.76-3.76v-27.16c0-2.08-1.69-3.76-3.76-3.76h-49.87c-10.5,0-19.56-8.05-20.08-18.54-.56-11.21,8.4-20.52,19.51-20.52h.16s.35.01.35.01h49.93c2.08,0,3.76-1.69,3.76-3.76V3.78Z"/><path class="cls-2" d="M746.98,71.39c.51-.05,1-.12,1.5-.2.25-.05.49-.09.74-.16.25-.05.49-.1.74-.18.23-.05.47-.12.69-.2l.7-.23s0-.01.01-.01c.53-.18,1.04-.4,1.54-.65.14-.06.27-.13.4-.2.2-.1.38-.21.57-.31.04-.03.08-.05.12-.07.01-.01.03-.01.04-.03.65-.36,1.28-.78,1.87-1.25.3-.23.6-.48.88-.73.29-.25.56-.51.83-.78.92-.92,1.74-1.95,2.43-3.06,1.65-2.64,2.62-5.78,2.62-9.14,0-9.54-7.72-17.26-17.24-17.26s-17.26,7.72-17.26,17.26c0,3.36.96,6.49,2.62,9.14.69,1.11,1.51,2.13,2.43,3.06.78.78,1.64,1.48,2.55,2.11.69.47,1.42.89,2.17,1.25.75.36,1.54.66,2.36.92,1.61.51,3.33.78,5.11.78.14,0,.27,0,.4-.01.13,0,.26-.01.39-.01.25-.01.51-.03.77-.05Z"/><path class="cls-2" d="M795.86,108.42c2.08,0,3.76-1.69,3.76-3.76v-50.44c0-29.57-23.68-53.62-53.12-54.19-30.4-.59-55.29,24.86-55.29,55.26v49.37c0,2.08,1.69,3.76,3.76,3.76h27.16c2.08,0,3.76-1.69,3.76-3.76v-49.87c0-10.5,8.05-19.56,18.54-20.08,11.21-.56,20.52,8.4,20.52,19.51v.16h-.01v50.28c0,2.08,1.69,3.76,3.76,3.76h27.16Z"/><path class="cls-2" d="M648.16,145.38c-8.11-20.28-28.38-34.68-51.51-34.68h-49.38c-.26,0-.52.03-.75.08-.25.05-.48.13-.7.22-.23.1-.44.22-.64.35-.08.04-.16.09-.22.16-.05.04-.12.09-.17.14-.16.13-.29.27-.42.42-.12.16-.23.33-.33.49-.14.22-.25.46-.33.7-.04.12-.08.23-.1.36-.06.27-.1.56-.1.85v100.87c0,.26.03.52.08.75.05.25.13.48.22.7.1.23.22.44.35.64.08.13.17.25.27.36.12.13.23.26.36.36.03.03.05.05.08.08.4.33.86.57,1.37.72.06.03.14.04.22.05.12.03.23.05.35.07.16.01.3.03.46.03h50.44c23.05,0,42.75-14.38,50.59-34.68,2.21-5.74,3.47-11.95,3.61-18.44.14-7.28-1.2-14.22-3.75-20.6ZM597.72,184.44h-.16s-14.96-.01-14.96-.01c-2.43,0-4.41-1.97-4.41-4.41v-30.23c0-2.43,1.97-4.41,4.41-4.41h14.54c10.44,0,19.46,7.95,20.07,18.37.65,11.11-8.07,20.4-18.99,20.67-.17.01-.34.01-.51.01Z"/><path class="cls-2" d="M664.36,34.69h20.81c2.08,0,3.76-1.69,3.76-3.76V3.77c0-2.08-1.69-3.76-3.76-3.76h-21.31c-19.28,0-36.21,10.07-45.82,25.24-.83,1.3-2.83.74-2.83-.8V3.59c-.01-.18-.04-.34-.06-.51-.04-.18-.08-.35-.13-.52-.01-.03-.03-.05-.04-.08-.05-.14-.1-.27-.17-.39-.04-.08-.08-.16-.13-.22-.16-.27-.35-.53-.57-.75-.1-.1-.21-.21-.33-.3-.06-.05-.13-.1-.21-.14-.22-.17-.46-.3-.72-.39-.08-.03-.14-.05-.22-.08-.14-.05-.29-.09-.43-.12-.25-.05-.49-.08-.75-.08h-27.16c-2.08,0-3.76,1.68-3.76,3.76v100.89c.01,2.08,1.68,3.76,3.76,3.76h27.16c2.08,0,3.76-1.68,3.76-3.76v-21.16c0-1.54,2-2.11,2.82-.81,9.84,15.43,27.34,25.73,46.9,25.73h20.24c2.08,0,3.76-1.69,3.76-3.76v-27.16c0-2.08-1.69-3.76-3.76-3.76h-20.74c-10.5,0-19.56-8.05-20.08-18.54-.56-11.21,8.4-20.52,19.51-20.52h.16s.35.01.35.01Z"/><path class="cls-2" d="M436.59.01h27.16c.26,0,.51.03.75.08.14.03.29.07.43.12.08.03.14.05.22.08.26.09.49.22.72.39.08.04.14.09.21.14.12.09.22.2.33.3.22.22.42.48.57.75.05.06.09.14.13.22.07.12.12.25.17.39.01.03.03.05.04.08.05.17.09.34.13.52.03.17.05.33.07.51v101.06c0,2.08-1.68,3.77-3.76,3.77h-27.16c-2.08,0-3.75-1.68-3.76-3.76V3.79c0-2.08,1.68-3.77,3.76-3.77Z"/><path class="cls-2" d="M657.96,110.71h27.2c.26,0,.51.03.76.08.14.03.29.07.43.12.08.03.14.05.22.08.26.09.5.22.72.39.08.04.14.09.21.14.12.09.22.2.33.3.22.22.42.48.57.75.05.06.09.14.13.22.07.12.12.25.17.39.01.03.03.05.04.08.05.17.09.34.13.52.03.17.05.33.07.51v101.06c0,2.08-1.68,3.77-3.77,3.77h-27.2c-2.09,0-3.75-1.68-3.77-3.76v-100.87c0-2.08,1.68-3.77,3.77-3.77Z"/><path class="cls-2" d="M306.38,145.42c-.78.01-4.26.01-9.02,0h9.02Z"/><path class="cls-2" d="M292.8,52.65c-.05-.51-.12-1-.2-1.5-.05-.25-.09-.49-.16-.74-.05-.25-.1-.49-.18-.74-.05-.23-.12-.47-.2-.69l-.23-.7s-.01,0-.01-.01c-.18-.53-.4-1.04-.65-1.54-.06-.14-.13-.27-.2-.4-.1-.2-.21-.38-.31-.57-.03-.04-.05-.08-.07-.12-.01-.01-.01-.03-.03-.04-.36-.65-.78-1.28-1.25-1.87-.23-.3-.48-.6-.73-.88-.25-.29-.51-.56-.78-.83-.92-.92-1.95-1.74-3.06-2.43-2.64-1.65-5.78-2.62-9.14-2.62-9.54,0-17.26,7.72-17.26,17.24s7.72,17.26,17.26,17.26c3.36,0,6.49-.96,9.14-2.62,1.11-.69,2.13-1.51,3.06-2.43.78-.78,1.48-1.64,2.11-2.55.47-.69.89-1.42,1.25-2.17.36-.75.66-1.54.92-2.36.51-1.61.78-3.33.78-5.11,0-.14,0-.27-.01-.4,0-.13-.01-.26-.01-.39-.01-.25-.03-.51-.05-.77Z"/><path class="cls-2" d="M426.77,0h-22.89c-2.79,0-5.34,1.57-6.59,4.09l-3.61,7.28-11.48,23.32-5.87,11.91-5.86-11.91-11.48-23.32-3.61-7.28c-1.25-2.51-3.8-4.09-6.6-4.09h-22.91s-.02,0-.03,0h-50.25c-29.57,0-53.62,23.68-54.19,53.12-.59,30.4,24.86,55.29,55.26,55.29h49.37c2.08,0,3.76-1.69,3.76-3.76v-27.16c0-2.08-1.69-3.76-3.76-3.76h-49.87c-10.5,0-19.56-8.05-20.08-18.54-.56-11.21,8.4-20.52,19.51-20.52h.16s.35.01.35.01h49.93s.02,0,.03,0h2.99c1.64,0,3.16.92,3.92,2.39l18.05,36.65,5.96,12.12,1.99,4.05,4.88,9.9,3.28,6.66c.09.16.18.29.29.43.12.14.22.29.34.4.03.03.05.04.08.05.1.12.21.21.33.29.06.05.13.1.21.13.26.18.55.33.85.43.14.05.29.09.43.13.08.01.16.03.25.03.17.04.34.07.51.07h11.83c.17,0,.34-.03.51-.07.08,0,.17-.01.25-.03.14-.04.29-.08.42-.13.3-.1.59-.25.85-.43.08-.03.16-.08.22-.13.1-.08.21-.17.33-.29.03-.01.04-.03.07-.05.13-.12.23-.26.35-.4.09-.14.18-.27.29-.43l3.28-6.68,4.88-9.9,1.98-4.02,5.97-12.13,19.22-39.04,9.29-18.88c.27-.55.39-1.12.39-1.68V3.78c0-2.08-1.69-3.77-3.77-3.77Z"/><path class="cls-2" d="M430.55,114.46v27.16c0,.26-.03.51-.08.75-.03.14-.07.29-.12.43-.03.08-.05.14-.08.22-.09.26-.22.49-.39.72-.04.08-.09.14-.14.21-.09.12-.2.22-.3.33-.22.22-.48.42-.75.57-.06.05-.14.09-.22.13-.12.07-.25.12-.39.17-.03.01-.05.03-.08.04-.17.05-.34.09-.52.13-.17.03-.33.05-.51.07h-29.53c-2.08.01-3.76,1.68-3.76,3.76v66.2c0,2.08-1.68,3.76-3.76,3.76h-27.16c-.26,0-.51-.03-.75-.08-.14-.03-.29-.07-.43-.12-.08-.03-.14-.05-.22-.08-.26-.09-.49-.22-.72-.39-.08-.04-.14-.09-.21-.14-.12-.09-.22-.2-.33-.3-.22-.22-.42-.48-.57-.75-.05-.06-.09-.14-.13-.22-.06-.12-.12-.25-.17-.39l-.04-.08c-.05-.17-.09-.34-.13-.52-.03-.17-.05-.33-.06-.51v-66.39c0-1.9-1.41-3.46-3.24-3.72h-58.4c-14.09-.03-39.5-.1-39.68.08-.04.03-.08.06-.1.1-.03.01-.04.03-.05.05-.03.03-.04.07-.06.1-.07.1-.12.22-.14.36-.08.26-.06.57-.01.83.01.05.03.09.04.14.03.08.07.16.1.22,0,0,0,.01.01.01.05.1.12.18.21.25.04.03.08.04.12.05.05.03.09.04.14.04,12.4.14,26.98-.23,39.45.16.08,0,.14.01.2.01.09.01.16.03.2.04,1.3.13,2.59.35,3.87.61,3.24.73,6.36,1.87,9.29,3.41.44.25.87.49,1.31.74,5.17,3.06,9.53,7.41,12.6,12.56.01.03.01.04.04.05,2.58,4.37,4.23,9.32,4.76,14.38v.03h0s0,.01.01.01v.04h0c.01.14.03.27.03.42.01.14.03.27.04.42,0,.07.01.12.01.18.01.23.04.47.04.7.01.14.03.29.03.43.01.14.01.29.01.43.01.16.01.33.01.48.01.31.01.72.01,1.03-.01.68-.03,1.37-.09,2.04-.01.26-.04.51-.06.77,0,.08-.01.17-.01.25l-.12,1.02c-.03.18-.04.36-.06.53-.01.03-.01.06-.01.1-.01.03-.01.06-.03.1,0,.03-.01.07-.01.1-.06.44-.14.88-.23,1.31l-.04.23c-.07.3-.12.59-.2.89-.04.22-.09.44-.14.66-.13.51-.26,1.02-.4,1.52-.01.03-.01.04-.01.06-.07.16-.09.3-.14.46s-.1.3-.14.46c-.03.05-.04.09-.05.14-.04.13-.09.26-.13.39-.16.47-.34.95-.51,1.41-.01.03-.01.04-.03.06-.03.08-.07.16-.09.23-.04.09-.08.2-.12.29-.03.05-.05.1-.06.16-.12.26-.23.52-.34.78-.12.25-.22.51-.34.75-.07.13-.12.26-.18.38-.27.59-.57,1.15-.87,1.7-.04.08-.09.14-.13.22-.17.29-.33.57-.51.86-.21.36-.43.72-.66,1.07-.21.33-.42.62-.62.95-.03.03-.04.06-.07.09-.64.89-1.29,1.76-1.99,2.59-.1.12-.2.23-.3.34,0,.01-.01.03-.03.04-.27.31-.55.62-.83.94-.05.06-.12.12-.17.18l-.3.3c-.49.53-1.05,1.04-1.57,1.54-.25.22-.49.44-.74.66-.17.13-.33.27-.49.4-.21.17-.42.35-.62.52-.01,0-.03.03-.03.03-.64.49-1.28.99-1.94,1.44-.03.01-.04.03-.07.05-1,.66-2,1.3-3.06,1.87-.18.12-.36.21-.56.3-.16.1-.35.2-.52.27-.01,0-.01.01-.03.01-.05.03-.09.05-.14.08-.04.01-.08.04-.12.05-.01,0-.01.01-.03.01-.07.04-.14.06-.21.1-.21.1-.42.2-.64.3-.1.05-.21.09-.31.14h-.03s-.03.01-.03.03t-.03.01s-.03.01-.03.01h-.04c-.07.04-.13.07-.18.09-.18.08-.36.16-.55.23h-.01c-.05.01-.1.04-.17.07-.05.03-.12.05-.18.08-.05.03-.12.05-.17.08-.06.03-.13.05-.18.08-.13.04-.25.09-.36.13-.13.05-.25.09-.38.14-.12.04-.25.08-.36.13-.13.04-.25.09-.38.13-.12.04-.25.08-.38.13-.12.04-.25.08-.36.12-.13.04-.26.08-.38.12-.07.01-.12.04-.18.07-.07.01-.12.03-.17.05h-.05s-.04,0-.05.03c-.04,0-.04.03-.08.01-.01.03-.05,0-.05.03-.26.06-.52.14-.78.21-.13.03-.25.07-.38.09-.13.04-.26.06-.39.1-.26.06-.53.12-.79.18-.26.05-.52.1-.78.16h-.04s-.01.01-.03.01h-.01c-.07.01-.12.03-.18.04-.05.01-.12.01-.17.03-.07.01-.12.03-.18.04-.05,0-.12.01-.17.03-.07.01-.12.03-.18.03-.06.01-.12.03-.18.04-.05,0-.12.01-.17.03-.06,0-.13.01-.18.03h-.08s-.09,0-.12.03c-.07,0-.12.01-.17.01-.05.01-.12.03-.17.03-.05.01-.1.01-.17.03-.05,0-.1.01-.16.03-.07,0-.12.01-.17.01-.05.01-.12.01-.17.03-.05,0-.1.01-.17.01-.04.01-.09.01-.13.03-.05.01-.12-.01-.17.01-.05,0-.1,0-.14.01-.16.01-.34.04-.49.04-.14.03-.29.01-.43.04-.06,0-.14,0-.21.01-.08,0-.14,0-.22.01-.07,0-.14,0-.21.01-.2,0-.43.03-.62.01-.12.03-.26.01-.38.01-.13.03-.43.01-.56.01,0,.04-69.13,0-69.18.01-.75,0-1.5-.22-2.11-.65-.61-.4-1.09-.96-1.37-1.65-.1-.22-.18-.46-.22-.7-.05-.25-.08-.49-.08-.75v-10.19c0-2.15.95-4.19,2.59-5.58l16.02-13.44c1.3-1.11,2.97-1.7,4.69-1.7.13.08,48.54-.01,48.67-.03.05-.01.1-.04.14-.07.05-.03.09-.06.13-.1.05-.04.09-.09.12-.14.04-.05.07-.1.09-.17h0c.04-.06.05-.12.08-.2.03-.07.04-.13.05-.21.01-.13.01-.31,0-.44-.01-.08-.03-.14-.04-.21-.03-.07-.04-.13-.06-.18-.01-.04-.04-.08-.07-.12,0-.03-.01-.04-.03-.05h0s-.03-.07-.05-.08c-.06-.07-.1-.1-.17-.17-.04-.03-.08-.05-.12-.06-.03,0-.05-.01-.08-.03-6.13-.04-30.15-.01-36.7-.03-.36-.01-.7-.01-1.05-.03-.35-.01-.7-.03-1.04-.07-.17,0-.34-.01-.51-.04-.14-.01-.27-.03-.4-.04h-.14s0-.01-.01-.01h-.03s-.05,0-.05-.01c-.04,0-.09.01-.1-.01h-.08c-.46-.05-.9-.1-1.34-.18-1.55-.21-3.07-.56-4.56-.99-.07,0-.12-.03-.18-.04-.2-.05-.36-.13-.56-.2h-.01c-1.22-.35-2.39-.79-3.57-1.3-.05-.01-.1-.04-.16-.07-4.11-1.8-7.89-4.37-11.06-7.55-.33-.34-.65-.68-.95-1.02-.35-.36-.68-.74-.99-1.12-.34-.38-.66-.77-.95-1.16-.64-.79-1.21-1.57-1.74-2.43-.83-1.25-1.57-2.58-2.23-3.93-.01-.01-.03-.03-.03-.04-1.68-3.53-2.84-7.33-3.25-11.24-.03-.08-.03-.16-.04-.25-.01-.08-.01-.16-.03-.23h-.01v-.06h0c-.03-.26-.05-.49-.08-.74-.05-.82-.07-.9-.07-.99-.06-.94-.06-1.89-.04-2.84,0-.16,0-.31.01-.47,0-.1-.01-.23.01-.35.01-.46.05-.9.09-1.37,0-.05.01-.12.01-.17.04-.46.09-.91.16-1.37.01-.12.04-.23.05-.35.08-.57.17-1.13.27-1.7.03-.17.07-.34.1-.51.07-.31.13-.64.21-.96.01-.08.04-.14.05-.22,0-.03.01-.05.03-.08.1-.48.23-.94.36-1.41.01-.05.04-.12.05-.17h0v-.03c.03-.1.04-.21.09-.31.04-.14.08-.3.14-.44.01-.05.03-.1.04-.16.04-.08.05-.21.1-.29h0c.01-.06.03-.12.05-.17,0-.03.01-.05.03-.07,0-.08.05-.16.06-.23.03-.05.04-.09.05-.14.03-.05.04-.1.05-.16.03-.04.04-.09.05-.14.03-.05.04-.09.07-.14.01-.05.03-.1.05-.14h0c.01-.07.04-.12.05-.17.03-.04.04-.09.06-.14.01-.05.04-.09.05-.14.01-.03.03-.05.04-.06,0-.03.01-.05.03-.08.01-.05.04-.1.05-.16.03-.04.04-.09.06-.14.01-.05.04-.09.05-.14.03-.05.04-.1.06-.14h0s.03-.08.04-.1c.04-.1.08-.2.12-.3.06-.13.12-.25.17-.38,0,0,0-.01.01-.01.05-.13.1-.25.16-.36.06-.13.13-.26.18-.38.07-.13.12-.26.18-.38.07-.13.12-.26.18-.38.07-.13.13-.25.2-.38.06-.12.13-.25.2-.36.1-.21.21-.39.31-.59.01-.03.03-.07.04-.09.09-.16.18-.31.27-.46.14-.29.34-.57.49-.85.16-.26.31-.51.48-.75.22-.36.46-.69.7-1.04.29-.44.62-.87.96-1.31h0s.01-.01.01-.01c.03-.04.05-.08.09-.12.09-.12.18-.23.27-.35.04-.04.06-.08.09-.12.04-.04.07-.08.09-.12.04-.04.07-.08.1-.12.03-.04.05-.08.09-.12t.01-.01h0v-.03h.03v-.03s.03-.01.03-.01c0-.01.01-.01.01-.01t.01-.01c.05-.08.12-.16.18-.22.05-.08.12-.16.18-.22.12-.14.25-.3.38-.43.05-.08.12-.14.18-.22.13-.13.26-.27.39-.42.07-.08.13-.14.2-.21h0c.21-.25.42-.43.64-.66.03-.03.04-.04.07-.05.08-.09.17-.18.25-.26.12-.09.22-.21.33-.31.12-.1.22-.21.33-.31.08-.07.14-.13.21-.18.08-.07.14-.12.22-.21.18-.16.38-.34.59-.51.17-.14.34-.3.51-.43.08-.08.16-.16.25-.22.13-.1.25-.2.38-.3,0,0,0-.01.01-.01.13-.1.26-.21.39-.31.08-.05.14-.1.22-.16.18-.16.38-.3.57-.44.03-.01.05-.04.08-.05.23-.18.48-.35.73-.52.27-.2.55-.38.83-.56.16-.1.31-.2.47-.29.12-.08.25-.16.38-.23.29-.18.57-.35.86-.51.29-.17.57-.33.87-.48.03-.03.06-.04.1-.07.04-.01.07-.04.1-.05.04-.03.08-.04.12-.07.03-.01.06-.03.1-.05.04-.01.07-.04.1-.05.04-.03.08-.04.12-.07.03-.01.06-.03.1-.05.04-.01.08-.04.12-.05,0-.01.01-.01.03-.01t.03-.03s.03,0,.03-.01c.03.01.04-.01.06-.03.01,0,.01-.01.03-.01.03,0,.04-.03.07-.03.1-.05.21-.1.31-.16.01-.01.04-.01.05-.01.04-.03.07-.04.1-.05.16-.08.33-.14.48-.23.05-.01.1-.04.16-.07h.01c.05-.03.1-.05.16-.07.95-.42,1.91-.83,2.92-1.16.36-.12.73-.27,1.11-.35.14-.05.27-.09.42-.13.01-.01.03-.01.05-.01.01-.01.03-.01.05-.01.01-.01.03-.01.04-.01.21-.07.46-.13.68-.2.17-.04.34-.09.51-.12.04-.03.08-.03.12-.03.29-.08.55-.14.83-.21.12-.03.23-.05.35-.08.09-.01.17-.04.26-.05.13-.03.27-.05.4-.08t.03,0h.01c.36-.08.73-.14,1.09-.2.01-.01.03-.01.04-.01.05-.01.09-.01.14-.01.07-.01.12-.03.18-.03.03-.01.06,0,.09-.01.01-.01.03-.01.05-.01.07-.01.13-.03.21-.03.05-.01.12-.01.17-.03.95-.12,1.91-.22,2.88-.26.2-.01.39-.03.59-.03.12-.01,1.12-.05,1.26-.05,6.98-.01,40.58-.05,68.56.01.05-.01.1-.01.16-.01h100.89c2.07,0,3.76,1.69,3.76,3.76Z"/><path class="cls-1" d="M99.36,97.38c-.01,2.68-.01,5.35,0,8.03.01.65-.23.97-.91.93-.36-.02-.72,0-1.08,0-2.24,0-2.28,0-2.31,2.29-.01.86-.34,1.12-1.14,1.07-.72-.04-1.44.02-2.16-.01-.68-.02-1,.21-1.04.95-.14,2.41-.17,2.41-2.54,2.41-.08,0-.16.01-.24,0-1.21-.19-1.61.32-1.55,1.53.08,1.82.01,1.83-1.79,1.83h-.36c-1.87,0-1.91,0-1.88,1.87,0,.32-.02.58-.1.78-1.15,0-2.31-.03-3.46,0-.8.02-1.12-.25-1.14-1.09-.07-2.51-.1-2.51-2.67-2.51-2.12,0-4.24-.03-6.35,0-.88.01-1.3-.21-1.29-1.2,0-2.17-.05-2.17-2.17-2.17-8.03,0-16.06-.02-24.08.03-1.21,0-1.64-.34-1.56-1.56.1-1.43.07-2.87.01-4.31-.05-1,.34-1.3,1.32-1.29,4.83.03,9.66-.02,14.49.04,1.16.01,1.52-.33,1.49-1.49-.07-2.32-.26-2.13,2.09-2.13,3.48-.01,6.95-.04,10.43.02,1.03.01,1.52-.27,1.35-1.34,0-.12,0-.24,0-.36.01-1.67.01-1.68,1.74-1.68,2.44,0,4.88-.03,7.31.02.9.01,1.29-.2,1.28-1.2-.02-2.41.03-2.41,2.42-2.41,1.16,0,2.32-.04,3.47.01.79.02,1.04-.29,1.05-1.06.05-2.28.08-2.33,2.29-2.29.98.02,1.44-.28,1.29-1.29-.01-.07,0-.16,0-.23.02-2.31-.16-2.13,2.05-2.07,1.09.03,1.44-.38,1.32-1.39-.05-.36.01-.72-.01-1.08-.01-.24.03-.42.11-.55v.08c.01,3.44.04,6.88-.02,10.31-.02,1.16.25,1.74,1.52,1.58.63-.08,1.28,0,1.92-.02.67-.03.91.29.9.94Z"/><path class="cls-1" d="M112.32,71.63c.04.9-.3,1.18-1.18,1.17-3.09-.03-6.16-.01-9.25-.01,0-1.62.01-3.23-.03-4.85-.02-.97.28-1.33,1.29-1.33,1.22.01,1.8,0,2.07-.35,1.94-.03,3.89.02,5.84-.03.91-.02,1.31.22,1.26,1.21-.07,1.4-.06,2.8,0,4.19Z"/><path class="cls-1" d="M115.97,36.84c-.03,5.27-.03,10.54-.02,15.81-2.29,0-4.6,0-6.9.01-.2,0-.37-.02-.5-.09.22-.19.3-.53.29-1.01-.03-4.83-.01-9.67-.01-14.5,0-1.57.01-1.58,1.59-1.58,1.4-.01,2.8.06,4.2-.02,1.07-.06,1.35.36,1.35,1.38Z"/><path class="cls-1" d="M115.98,179.61c.01,1.24-.39,1.62-1.58,1.54-1.35-.09-2.72-.11-4.07,0-1.26.1-1.54-.42-1.52-1.58.02-2.06.03-4.14.03-6.2.08.01.16.01.24.01,2.23-.03,4.47-.02,6.71,0,.05,0,.11,0,.15-.01,0,2.08.01,4.16.04,6.24Z"/><path class="cls-1" d="M122.91,148.85c.03.82-.28,1.11-1.11,1.13-2.5.06-2.5.09-2.5,2.57,0,3.39-.03,6.79.02,10.18.02,1.02-.26,1.53-1.34,1.38-.28-.03-.56.03-.84-.01-.98-.13-1.21.35-1.21,1.25,0,.45.01.89.01,1.34-.47-.16-1.19-.17-2.3-.18-.89,0-1.19-.28-1.18-1.17.04-3.12,0-6.23,0-9.35q0-2.74,2.69-2.75,1.62,0,1.63-1.66t1.71-1.69c2.29-.01,2.33-.01,2.35-2.25.01-.82.26-1.17,1.11-1.12.31.02.62.02.93.02-.01.77-.01,1.54.02,2.31Z"/><path class="cls-1" d="M125.01,128.03q0,1.55-1.6,1.56c-.4,0-.8.04-1.19,0-1.23-.17-1.6.35-1.55,1.55.08,1.81.01,1.81-1.79,1.81h-.36c-1.87.01-1.93.01-1.88,1.88.03,1.06-.4,1.27-1.34,1.25-3.08-.04-6.16-.02-9.23-.01-2.75.01-2.4-.25-2.37,2.34.01.75-.19,1.1-.67,1.21-1.12-.08-1.15-.5-1.13-2.3,0-.92-.24-1.31-1.22-1.26-1.52.07-3.04.05-4.55.01-.79-.02-1.11.29-1.03,1.06.01.12,0,.24,0,.36-.02,2.5.16,2.19-2.19,2.17-.88,0-1.19.27-1.19,1.16.03,2.39.36,2.2-2.27,2.21-1.16,0-2.32.04-3.47-.01-.86-.04-1.21.22-1.21,1.14,0,2.38-.04,2.41-2.49,2.45-.85.01-1.18.31-1.08,1.13v.24c-.01,2.17.15,2.04-2.02,1.98-1.05-.03-1.38.29-1.36,1.35.04,2.5.29,2.3-2.21,2.24-1.17-.04-1.4.41-1.39,1.46.05,2.38.28,2.14-2.19,2.16-1.12,0-2.24.03-3.36-.01-.79-.03-1.14.19-1.15,1.07-.03,2.26-.07,2.31-2.3,2.27-1-.01-1.42.31-1.28,1.3.01.04,0,.08,0,.12-.01,2.2-.66,2.67-2.9,2.18-.62-.13-.61-.54-.62-.98,0-1.71.02-3.43-.01-5.15,0-.73.32-.95,1.01-.98,2.26-.1,2.29-.13,2.34-2.48.02-.82.29-1.1,1.12-1.12,2.4-.05,2.44-.08,2.47-2.45.01-.92.39-1.14,1.22-1.14,2.15-.02,2.15-.05,2.15-2.2,0-1.2.04-2.4,0-3.59-.02-.38.04-.65.18-.84,1.91.05,3.82.02,5.73.02q1.56-.01,1.57-1.61c0-.15.02-.32,0-.47-.14-1,.3-1.31,1.29-1.3,3.39.05,6.79,0,10.18.04.94.01,1.26-.3,1.26-1.24,0-2.37.04-2.37,2.44-2.37,1.83-.01,1.89-.01,1.83-1.81-.04-1.09.38-1.45,1.39-1.31.24.03.48,0,.72,0,2.53-.01,2.24.17,2.21-2.15-.02-.96.32-1.25,1.25-1.22,1.96.06,3.92-.05,5.87.04,1.22.06,1.61-.35,1.55-1.56-.08-1.81-.01-1.82,1.79-1.82,2.39,0,2.41,0,2.49-2.35.03-.7.23-1.06.97-1.01.32.03.64,0,.96.01,2.57.01,2.24-.2,2.21,2.12,0,.94.3,1.27,1.25,1.25,1.83-.06,3.67-.02,5.51-.02q1.65,0,1.65,1.63Z"/><path class="cls-1" d="M144.58,72.79c-2.59.02-2.28-.28-2.31,2.31-.01,1.16-.02,2.32,0,3.47.01.66-.25.96-.92.93-.76-.02-1.52.03-2.28-.01-.81-.04-1.12.26-1.14,1.1-.05,2.27-.08,2.26-2.32,2.26-1.68,0-3.36.04-5.03-.01-.9-.02-1.29.23-1.28,1.21,0,2.16-.05,2.16-2.18,2.16-4.44,0-8.87-.03-13.31.02-1.03.01-1.4-.28-1.37-1.35.07-2.43.05-4.87.01-7.31-.02-.88.19-1.28,1.19-1.28,3.14-.01,3.14-.05,3.14-3.13,0-.08-.01-.16,0-.24.07-1.03-.41-2.28.22-3.03.51-.61,1.45-.38,2.3-.3,0,.94,0,1.88-.02,2.82-.02.88.26,1.19,1.16,1.19,2.45.01,2.45.05,2.45,2.51,0,1.08.04,2.16-.01,3.24-.04.85.21,1.24,1.14,1.2,1.51-.06,3.03-.05,4.55,0,.83.02,1.11-.28,1.12-1.11.02-2.26.05-2.26,2.34-2.26,1.16,0,2.32-.04,3.47.01.82.03,1.22-.24,1.12-1.09-.01-.12,0-.24,0-.36.02-2.38-.19-2.18,2.1-2.13,1.03.02,1.38-.36,1.26-1.33-.03-.27.03-.56-.01-.83-.11-.96.33-1.26,1.25-1.23,1.56.05,3.12-.02,4.67.02.29.01.5-.03.66-.12.03.12.04.27.02.44,0,.04,0,.08.01.12.07,2.11.07,2.1-2.01,2.11Z"/><path class="cls-1" d="M164.37,62.3c.01.15,0,.29-.02.41-1.28-.01-2.56,0-3.84.02-.77.02-1.08-.25-1.06-1.04.04-1.52-.02-3.03.02-4.55.01-.35-.04-.62-.17-.81,1.34.02,2.68.02,4.02-.01.79-.01,1.06.31,1.05,1.07-.03,1.64-.05,3.28,0,4.91Z"/><path class="cls-1" d="M176.63,112.11c-2.39,0-4.78-.01-7.17-.04-1.23-.02-1.59.35-1.53,1.56.09,1.82.02,1.82-1.8,1.83-3.6,0-7.19.02-10.79-.02-.98-.02-1.32.28-1.31,1.29.03,2.59.37,2.3-2.38,2.32h-.8c-.06-.28-.03-.71,0-1.4.03-.92-.26-1.34-1.23-1.25-.67.05-1.35,0-2.03,0-.54.01-.79-.21-.83-.77-.07-.81.39-1.86-.3-2.39-.67-.51-1.7-.13-2.57-.19-.16-.01-.32-.01-.48,0-.74.07-.99-.29-.97-1,.04-.91.01-1.83.01-2.75q0-2.93-2.98-2.96c-.12,0-.24,0-.36,0-.72.07-1-.26-.98-.98.03-1.44.06-2.88-.01-4.31-.06-1.05.38-1.28,1.33-1.27,2.56.04,5.12.03,7.69.02.04,1.59.28,1.59,2.25,1.59,2.24,0,4.47.03,6.71-.02.95-.02,1.35.25,1.34,1.27-.01,2.34.03,2.34,2.36,2.34h12.53c.15,1.52.49,1.52,2.66,1.53.2,0,.41.02.6,0,.74-.06,1.01.28.98.99-.03.84-.01,1.68-.01,2.52,0,.94,0,1.61.08,2.09Z"/><path class="cls-1" d="M185.23,110.89c.04.97-.36,1.23-1.27,1.22-.97-.01-1.94-.01-2.91-.01.15-2.22.23-2.22,2.53-2.24.08,0,.16-.01.24.01.99.12,1.33-.3,1.31-1.29-.02-1.08-.02-2.16-.02-3.24.1.24.1.62.1,1.24,0,1.44-.05,2.88.02,4.31Z"/></svg>