<?xml version="1.0" encoding="UTF-8" standalone="no"?>
<!DOCTYPE svg PUBLIC "-//W3C//DTD SVG 1.1//EN" "http://www.w3.org/Graphics/SVG/1.1/DTD/svg11.dtd">
<svg width="100%" height="100%" viewBox="0 0 1080 1080" version="1.1" xmlns="http://www.w3.org/2000/svg" xmlns:xlink="http://www.w3.org/1999/xlink" xml:space="preserve" xmlns:serif="http://www.serif.com/" style="fill-rule:evenodd;clip-rule:evenodd;stroke-linejoin:round;stroke-miterlimit:2;">
    <g transform="matrix(2.14734,0,0,2.14734,0.000412016,157.392)">
        <path d="M171.232,170.832C171.112,170.231 171.016,169.653 170.847,169.052C170.727,168.451 170.607,167.874 170.414,167.273C170.294,166.72 170.126,166.143 169.934,165.614L169.38,163.93C169.38,163.93 169.356,163.93 169.356,163.906C168.924,162.632 168.395,161.406 167.793,160.203C167.649,159.867 167.481,159.554 167.312,159.241C167.072,158.761 166.808,158.328 166.567,157.871C166.495,157.775 166.447,157.678 166.399,157.582C166.375,157.558 166.375,157.51 166.327,157.486C165.461,155.923 164.451,154.408 163.321,152.989C162.768,152.268 162.167,151.547 161.565,150.873C160.964,150.176 160.339,149.527 159.69,148.878C157.478,146.665 155.001,144.694 152.332,143.034C145.984,139.067 138.433,136.734 130.354,136.734C107.414,136.734 88.85,155.298 88.85,178.19C88.85,201.082 107.414,219.693 130.354,219.693C138.433,219.693 145.96,217.385 152.332,213.393C155.001,211.734 157.454,209.762 159.69,207.55C161.565,205.674 163.249,203.606 164.764,201.418C165.894,199.759 166.904,198.004 167.769,196.2C168.635,194.397 169.356,192.497 169.982,190.525C171.208,186.654 171.857,182.518 171.857,178.238C171.857,177.901 171.857,177.589 171.833,177.276C171.833,176.963 171.809,176.651 171.809,176.338C171.785,175.737 171.737,175.112 171.689,174.487L171.689,174.439C171.593,173.212 171.424,172.034 171.232,170.832Z" style="fill:white;fill-rule:nonzero;"/>
        <path d="M493.882,47.836L438.816,47.836C432.107,47.836 425.976,51.611 422.97,57.671L414.289,75.177L386.685,131.252L372.569,159.891L358.479,131.252L330.874,75.177L322.193,57.671C319.187,51.635 313.056,47.836 306.323,47.836L130.33,47.836C59.226,47.836 1.395,104.777 0.024,175.569C-1.395,248.669 59.803,308.519 132.903,308.519L251.618,308.519C256.619,308.519 260.659,304.456 260.659,299.478L260.659,234.169C260.659,229.167 256.595,225.128 251.618,225.128L131.7,225.128C106.452,225.128 84.666,205.771 83.416,180.546C82.069,153.591 103.615,131.204 130.33,131.204L131.556,131.204L251.618,131.228L258.88,131.228C262.823,131.228 266.478,133.44 268.306,136.975L311.709,225.104L326.04,254.247L330.826,263.986L342.56,287.792L350.447,303.806C350.664,304.191 350.88,304.504 351.144,304.84C351.433,305.177 351.673,305.538 351.962,305.802C352.034,305.874 352.082,305.898 352.154,305.922C352.395,306.211 352.659,306.427 352.948,306.62C353.092,306.74 353.261,306.86 353.453,306.932C354.078,307.365 354.775,307.726 355.497,307.966C355.833,308.086 356.194,308.183 356.531,308.279C356.723,308.303 356.916,308.351 357.132,308.351C357.541,308.447 357.949,308.519 358.358,308.519L386.805,308.519C387.214,308.519 387.622,308.447 388.031,308.351C388.223,308.351 388.44,308.327 388.632,308.279C388.969,308.183 389.33,308.086 389.642,307.966C390.364,307.726 391.061,307.365 391.686,306.932C391.878,306.86 392.071,306.74 392.215,306.62C392.456,306.427 392.72,306.211 393.009,305.922C393.081,305.898 393.105,305.85 393.177,305.802C393.49,305.514 393.73,305.177 394.019,304.84C394.235,304.504 394.451,304.191 394.716,303.806L402.603,287.744L414.337,263.938L419.099,254.271L433.454,225.104L479.671,131.228L502.009,85.829C502.659,84.506 502.947,83.136 502.947,81.789L502.947,56.926C502.947,51.924 498.883,47.86 493.882,47.86L493.882,47.836Z" style="fill:white;fill-rule:nonzero;"/>
    </g>
</svg>
